<?xml version="1.0" encoding="UTF-8" standalone="no"?>
<!DOCTYPE svg PUBLIC "-//W3C//DTD SVG 1.0//EN"
 "http://www.w3.org/TR/2001/REC-SVG-20010904/DTD/svg10.dtd">
<svg
 id="svg1"
 xmlns="http://www.w3.org/2000/svg"
 width="3.5in"
 height="2.0in" ><rect stroke-width="0.000000" height="2in" width="3.5in" y="0.000000" x="0.000000" fill="#aba482"/><g transform="translate(157.500000,90.000000)"><g transform="rotate(5.600000)"><polyline stroke="#82773f" points="54.000000 -1.286097 55.000000 -1.063457 56.000000 -0.861816 57.000000 -0.681235 58.000000 -0.521769 59.000000 -0.383467 60.000000 -0.266371 61.000000 -0.170516 62.000000 -0.095933 63.000000 -0.042642 64.000000 -0.010661 65.000000 0.000000 66.000000 -0.010661 67.000000 -0.042642 68.000000 -0.095933 69.000000 -0.170516 70.000000 -0.266371 71.000000 -0.383467 72.000000 -0.521769 73.000000 -0.681235 74.000000 -0.861816 75.000000 -1.063457 76.000000 -1.286097 77.000000 -1.529668 78.000000 -1.794095 79.000000 -2.079299 80.000000 -2.385192 81.000000 -2.711681 82.000000 -3.058667 83.000000 -3.426044" stroke-width="5.000000" fill="none"/><polyline stroke="#e4dfc6" points="55.000000 -1.063457 56.000000 -0.861816 57.000000 -0.681235 58.000000 -0.521769 59.000000 -0.383467 60.000000 -0.266371 61.000000 -0.170516 62.000000 -0.095933 63.000000 -0.042642 64.000000 -0.010661 65.000000 0.000000 66.000000 -0.010661 67.000000 -0.042642 68.000000 -0.095933 69.000000 -0.170516 70.000000 -0.266371 71.000000 -0.383467 72.000000 -0.521769 73.000000 -0.681235 74.000000 -0.861816 75.000000 -1.063457 76.000000 -1.286097 77.000000 -1.529668 78.000000 -1.794095 79.000000 -2.079299 80.000000 -2.385192 81.000000 -2.711681 82.000000 -3.058667" stroke-width="3.000000" fill="none"/></g><g transform="rotate(16.850000)"><polyline stroke="#82773f" points="54.000000 -1.286097 55.000000 -1.063457 56.000000 -0.861816 57.000000 -0.681235 58.000000 -0.521769 59.000000 -0.383467 60.000000 -0.266371 61.000000 -0.170516 62.000000 -0.095933 63.000000 -0.042642 64.000000 -0.010661 65.000000 0.000000 66.000000 -0.010661 67.000000 -0.042642 68.000000 -0.095933 69.000000 -0.170516 70.000000 -0.266371 71.000000 -0.383467 72.000000 -0.521769 73.000000 -0.681235 74.000000 -0.861816 75.000000 -1.063457 76.000000 -1.286097 77.000000 -1.529668 78.000000 -1.794095 79.000000 -2.079299 80.000000 -2.385192 81.000000 -2.711681 82.000000 -3.058667 83.000000 -3.426044" stroke-width="5.000000" fill="none"/><polyline stroke="#e4dfc6" points="55.000000 -1.063457 56.000000 -0.861816 57.000000 -0.681235 58.000000 -0.521769 59.000000 -0.383467 60.000000 -0.266371 61.000000 -0.170516 62.000000 -0.095933 63.000000 -0.042642 64.000000 -0.010661 65.000000 0.000000 66.000000 -0.010661 67.000000 -0.042642 68.000000 -0.095933 69.000000 -0.170516 70.000000 -0.266371 71.000000 -0.383467 72.000000 -0.521769 73.000000 -0.681235 74.000000 -0.861816 75.000000 -1.063457 76.000000 -1.286097 77.000000 -1.529668 78.000000 -1.794095 79.000000 -2.079299 80.000000 -2.385192 81.000000 -2.711681 82.000000 -3.058667" stroke-width="3.000000" fill="none"/></g><g transform="rotate(28.100000)"><polyline stroke="#82773f" points="54.000000 -1.286097 55.000000 -1.063457 56.000000 -0.861816 57.000000 -0.681235 58.000000 -0.521769 59.000000 -0.383467 60.000000 -0.266371 61.000000 -0.170516 62.000000 -0.095933 63.000000 -0.042642 64.000000 -0.010661 65.000000 0.000000 66.000000 -0.010661 67.000000 -0.042642 68.000000 -0.095933 69.000000 -0.170516 70.000000 -0.266371 71.000000 -0.383467 72.000000 -0.521769 73.000000 -0.681235 74.000000 -0.861816 75.000000 -1.063457 76.000000 -1.286097 77.000000 -1.529668 78.000000 -1.794095 79.000000 -2.079299 80.000000 -2.385192 81.000000 -2.711681 82.000000 -3.058667 83.000000 -3.426044" stroke-width="5.000000" fill="none"/><polyline stroke="#e4dfc6" points="55.000000 -1.063457 56.000000 -0.861816 57.000000 -0.681235 58.000000 -0.521769 59.000000 -0.383467 60.000000 -0.266371 61.000000 -0.170516 62.000000 -0.095933 63.000000 -0.042642 64.000000 -0.010661 65.000000 0.000000 66.000000 -0.010661 67.000000 -0.042642 68.000000 -0.095933 69.000000 -0.170516 70.000000 -0.266371 71.000000 -0.383467 72.000000 -0.521769 73.000000 -0.681235 74.000000 -0.861816 75.000000 -1.063457 76.000000 -1.286097 77.000000 -1.529668 78.000000 -1.794095 79.000000 -2.079299 80.000000 -2.385192 81.000000 -2.711681 82.000000 -3.058667" stroke-width="3.000000" fill="none"/></g><g transform="rotate(39.350000)"><polyline stroke="#82773f" points="54.000000 -1.286097 55.000000 -1.063457 56.000000 -0.861816 57.000000 -0.681235 58.000000 -0.521769 59.000000 -0.383467 60.000000 -0.266371 61.000000 -0.170516 62.000000 -0.095933 63.000000 -0.042642 64.000000 -0.010661 65.000000 0.000000 66.000000 -0.010661 67.000000 -0.042642 68.000000 -0.095933 69.000000 -0.170516 70.000000 -0.266371 71.000000 -0.383467 72.000000 -0.521769 73.000000 -0.681235 74.000000 -0.861816 75.000000 -1.063457 76.000000 -1.286097 77.000000 -1.529668 78.000000 -1.794095 79.000000 -2.079299 80.000000 -2.385192 81.000000 -2.711681 82.000000 -3.058667 83.000000 -3.426044" stroke-width="5.000000" fill="none"/><polyline stroke="#e4dfc6" points="55.000000 -1.063457 56.000000 -0.861816 57.000000 -0.681235 58.000000 -0.521769 59.000000 -0.383467 60.000000 -0.266371 61.000000 -0.170516 62.000000 -0.095933 63.000000 -0.042642 64.000000 -0.010661 65.000000 0.000000 66.000000 -0.010661 67.000000 -0.042642 68.000000 -0.095933 69.000000 -0.170516 70.000000 -0.266371 71.000000 -0.383467 72.000000 -0.521769 73.000000 -0.681235 74.000000 -0.861816 75.000000 -1.063457 76.000000 -1.286097 77.000000 -1.529668 78.000000 -1.794095 79.000000 -2.079299 80.000000 -2.385192 81.000000 -2.711681 82.000000 -3.058667" stroke-width="3.000000" fill="none"/></g><g transform="rotate(50.600000)"><polyline stroke="#82773f" points="54.000000 -1.286097 55.000000 -1.063457 56.000000 -0.861816 57.000000 -0.681235 58.000000 -0.521769 59.000000 -0.383467 60.000000 -0.266371 61.000000 -0.170516 62.000000 -0.095933 63.000000 -0.042642 64.000000 -0.010661 65.000000 0.000000 66.000000 -0.010661 67.000000 -0.042642 68.000000 -0.095933 69.000000 -0.170516 70.000000 -0.266371 71.000000 -0.383467 72.000000 -0.521769 73.000000 -0.681235 74.000000 -0.861816 75.000000 -1.063457 76.000000 -1.286097 77.000000 -1.529668 78.000000 -1.794095 79.000000 -2.079299 80.000000 -2.385192 81.000000 -2.711681 82.000000 -3.058667 83.000000 -3.426044" stroke-width="5.000000" fill="none"/><polyline stroke="#e4dfc6" points="55.000000 -1.063457 56.000000 -0.861816 57.000000 -0.681235 58.000000 -0.521769 59.000000 -0.383467 60.000000 -0.266371 61.000000 -0.170516 62.000000 -0.095933 63.000000 -0.042642 64.000000 -0.010661 65.000000 0.000000 66.000000 -0.010661 67.000000 -0.042642 68.000000 -0.095933 69.000000 -0.170516 70.000000 -0.266371 71.000000 -0.383467 72.000000 -0.521769 73.000000 -0.681235 74.000000 -0.861816 75.000000 -1.063457 76.000000 -1.286097 77.000000 -1.529668 78.000000 -1.794095 79.000000 -2.079299 80.000000 -2.385192 81.000000 -2.711681 82.000000 -3.058667" stroke-width="3.000000" fill="none"/></g><g transform="rotate(61.850000)"><polyline stroke="#82773f" points="54.000000 -1.286097 55.000000 -1.063457 56.000000 -0.861816 57.000000 -0.681235 58.000000 -0.521769 59.000000 -0.383467 60.000000 -0.266371 61.000000 -0.170516 62.000000 -0.095933 63.000000 -0.042642 64.000000 -0.010661 65.000000 0.000000 66.000000 -0.010661 67.000000 -0.042642 68.000000 -0.095933 69.000000 -0.170516 70.000000 -0.266371 71.000000 -0.383467 72.000000 -0.521769 73.000000 -0.681235 74.000000 -0.861816 75.000000 -1.063457 76.000000 -1.286097 77.000000 -1.529668 78.000000 -1.794095 79.000000 -2.079299 80.000000 -2.385192 81.000000 -2.711681 82.000000 -3.058667 83.000000 -3.426044" stroke-width="5.000000" fill="none"/><polyline stroke="#e4dfc6" points="55.000000 -1.063457 56.000000 -0.861816 57.000000 -0.681235 58.000000 -0.521769 59.000000 -0.383467 60.000000 -0.266371 61.000000 -0.170516 62.000000 -0.095933 63.000000 -0.042642 64.000000 -0.010661 65.000000 0.000000 66.000000 -0.010661 67.000000 -0.042642 68.000000 -0.095933 69.000000 -0.170516 70.000000 -0.266371 71.000000 -0.383467 72.000000 -0.521769 73.000000 -0.681235 74.000000 -0.861816 75.000000 -1.063457 76.000000 -1.286097 77.000000 -1.529668 78.000000 -1.794095 79.000000 -2.079299 80.000000 -2.385192 81.000000 -2.711681 82.000000 -3.058667" stroke-width="3.000000" fill="none"/></g><g transform="rotate(73.100000)"><polyline stroke="#82773f" points="54.000000 -1.286097 55.000000 -1.063457 56.000000 -0.861816 57.000000 -0.681235 58.000000 -0.521769 59.000000 -0.383467 60.000000 -0.266371 61.000000 -0.170516 62.000000 -0.095933 63.000000 -0.042642 64.000000 -0.010661 65.000000 0.000000 66.000000 -0.010661 67.000000 -0.042642 68.000000 -0.095933 69.000000 -0.170516 70.000000 -0.266371 71.000000 -0.383467 72.000000 -0.521769 73.000000 -0.681235 74.000000 -0.861816 75.000000 -1.063457 76.000000 -1.286097 77.000000 -1.529668 78.000000 -1.794095 79.000000 -2.079299 80.000000 -2.385192 81.000000 -2.711681 82.000000 -3.058667 83.000000 -3.426044" stroke-width="5.000000" fill="none"/><polyline stroke="#e4dfc6" points="55.000000 -1.063457 56.000000 -0.861816 57.000000 -0.681235 58.000000 -0.521769 59.000000 -0.383467 60.000000 -0.266371 61.000000 -0.170516 62.000000 -0.095933 63.000000 -0.042642 64.000000 -0.010661 65.000000 0.000000 66.000000 -0.010661 67.000000 -0.042642 68.000000 -0.095933 69.000000 -0.170516 70.000000 -0.266371 71.000000 -0.383467 72.000000 -0.521769 73.000000 -0.681235 74.000000 -0.861816 75.000000 -1.063457 76.000000 -1.286097 77.000000 -1.529668 78.000000 -1.794095 79.000000 -2.079299 80.000000 -2.385192 81.000000 -2.711681 82.000000 -3.058667" stroke-width="3.000000" fill="none"/></g><g transform="rotate(84.350000)"><polyline stroke="#82773f" points="54.000000 -1.286097 55.000000 -1.063457 56.000000 -0.861816 57.000000 -0.681235 58.000000 -0.521769 59.000000 -0.383467 60.000000 -0.266371 61.000000 -0.170516 62.000000 -0.095933 63.000000 -0.042642 64.000000 -0.010661 65.000000 0.000000 66.000000 -0.010661 67.000000 -0.042642 68.000000 -0.095933 69.000000 -0.170516 70.000000 -0.266371 71.000000 -0.383467 72.000000 -0.521769 73.000000 -0.681235 74.000000 -0.861816 75.000000 -1.063457 76.000000 -1.286097 77.000000 -1.529668 78.000000 -1.794095 79.000000 -2.079299 80.000000 -2.385192 81.000000 -2.711681 82.000000 -3.058667 83.000000 -3.426044" stroke-width="5.000000" fill="none"/><polyline stroke="#e4dfc6" points="55.000000 -1.063457 56.000000 -0.861816 57.000000 -0.681235 58.000000 -0.521769 59.000000 -0.383467 60.000000 -0.266371 61.000000 -0.170516 62.000000 -0.095933 63.000000 -0.042642 64.000000 -0.010661 65.000000 0.000000 66.000000 -0.010661 67.000000 -0.042642 68.000000 -0.095933 69.000000 -0.170516 70.000000 -0.266371 71.000000 -0.383467 72.000000 -0.521769 73.000000 -0.681235 74.000000 -0.861816 75.000000 -1.063457 76.000000 -1.286097 77.000000 -1.529668 78.000000 -1.794095 79.000000 -2.079299 80.000000 -2.385192 81.000000 -2.711681 82.000000 -3.058667" stroke-width="3.000000" fill="none"/></g><g transform="rotate(95.600000)"><polyline stroke="#82773f" points="54.000000 -1.286097 55.000000 -1.063457 56.000000 -0.861816 57.000000 -0.681235 58.000000 -0.521769 59.000000 -0.383467 60.000000 -0.266371 61.000000 -0.170516 62.000000 -0.095933 63.000000 -0.042642 64.000000 -0.010661 65.000000 0.000000 66.000000 -0.010661 67.000000 -0.042642 68.000000 -0.095933 69.000000 -0.170516 70.000000 -0.266371 71.000000 -0.383467 72.000000 -0.521769 73.000000 -0.681235 74.000000 -0.861816 75.000000 -1.063457 76.000000 -1.286097 77.000000 -1.529668 78.000000 -1.794095 79.000000 -2.079299 80.000000 -2.385192 81.000000 -2.711681 82.000000 -3.058667 83.000000 -3.426044" stroke-width="5.000000" fill="none"/><polyline stroke="#e4dfc6" points="55.000000 -1.063457 56.000000 -0.861816 57.000000 -0.681235 58.000000 -0.521769 59.000000 -0.383467 60.000000 -0.266371 61.000000 -0.170516 62.000000 -0.095933 63.000000 -0.042642 64.000000 -0.010661 65.000000 0.000000 66.000000 -0.010661 67.000000 -0.042642 68.000000 -0.095933 69.000000 -0.170516 70.000000 -0.266371 71.000000 -0.383467 72.000000 -0.521769 73.000000 -0.681235 74.000000 -0.861816 75.000000 -1.063457 76.000000 -1.286097 77.000000 -1.529668 78.000000 -1.794095 79.000000 -2.079299 80.000000 -2.385192 81.000000 -2.711681 82.000000 -3.058667" stroke-width="3.000000" fill="none"/></g><g transform="rotate(106.850000)"><polyline stroke="#82773f" points="54.000000 -1.286097 55.000000 -1.063457 56.000000 -0.861816 57.000000 -0.681235 58.000000 -0.521769 59.000000 -0.383467 60.000000 -0.266371 61.000000 -0.170516 62.000000 -0.095933 63.000000 -0.042642 64.000000 -0.010661 65.000000 0.000000 66.000000 -0.010661 67.000000 -0.042642 68.000000 -0.095933 69.000000 -0.170516 70.000000 -0.266371 71.000000 -0.383467 72.000000 -0.521769 73.000000 -0.681235 74.000000 -0.861816 75.000000 -1.063457 76.000000 -1.286097 77.000000 -1.529668 78.000000 -1.794095 79.000000 -2.079299 80.000000 -2.385192 81.000000 -2.711681 82.000000 -3.058667 83.000000 -3.426044" stroke-width="5.000000" fill="none"/><polyline stroke="#e4dfc6" points="55.000000 -1.063457 56.000000 -0.861816 57.000000 -0.681235 58.000000 -0.521769 59.000000 -0.383467 60.000000 -0.266371 61.000000 -0.170516 62.000000 -0.095933 63.000000 -0.042642 64.000000 -0.010661 65.000000 0.000000 66.000000 -0.010661 67.000000 -0.042642 68.000000 -0.095933 69.000000 -0.170516 70.000000 -0.266371 71.000000 -0.383467 72.000000 -0.521769 73.000000 -0.681235 74.000000 -0.861816 75.000000 -1.063457 76.000000 -1.286097 77.000000 -1.529668 78.000000 -1.794095 79.000000 -2.079299 80.000000 -2.385192 81.000000 -2.711681 82.000000 -3.058667" stroke-width="3.000000" fill="none"/></g><g transform="rotate(118.100000)"><polyline stroke="#82773f" points="54.000000 -1.286097 55.000000 -1.063457 56.000000 -0.861816 57.000000 -0.681235 58.000000 -0.521769 59.000000 -0.383467 60.000000 -0.266371 61.000000 -0.170516 62.000000 -0.095933 63.000000 -0.042642 64.000000 -0.010661 65.000000 0.000000 66.000000 -0.010661 67.000000 -0.042642 68.000000 -0.095933 69.000000 -0.170516 70.000000 -0.266371 71.000000 -0.383467 72.000000 -0.521769 73.000000 -0.681235 74.000000 -0.861816 75.000000 -1.063457 76.000000 -1.286097 77.000000 -1.529668 78.000000 -1.794095 79.000000 -2.079299 80.000000 -2.385192 81.000000 -2.711681 82.000000 -3.058667 83.000000 -3.426044" stroke-width="5.000000" fill="none"/><polyline stroke="#e4dfc6" points="55.000000 -1.063457 56.000000 -0.861816 57.000000 -0.681235 58.000000 -0.521769 59.000000 -0.383467 60.000000 -0.266371 61.000000 -0.170516 62.000000 -0.095933 63.000000 -0.042642 64.000000 -0.010661 65.000000 0.000000 66.000000 -0.010661 67.000000 -0.042642 68.000000 -0.095933 69.000000 -0.170516 70.000000 -0.266371 71.000000 -0.383467 72.000000 -0.521769 73.000000 -0.681235 74.000000 -0.861816 75.000000 -1.063457 76.000000 -1.286097 77.000000 -1.529668 78.000000 -1.794095 79.000000 -2.079299 80.000000 -2.385192 81.000000 -2.711681 82.000000 -3.058667" stroke-width="3.000000" fill="none"/></g><g transform="rotate(129.350000)"><polyline stroke="#82773f" points="54.000000 -1.286097 55.000000 -1.063457 56.000000 -0.861816 57.000000 -0.681235 58.000000 -0.521769 59.000000 -0.383467 60.000000 -0.266371 61.000000 -0.170516 62.000000 -0.095933 63.000000 -0.042642 64.000000 -0.010661 65.000000 0.000000 66.000000 -0.010661 67.000000 -0.042642 68.000000 -0.095933 69.000000 -0.170516 70.000000 -0.266371 71.000000 -0.383467 72.000000 -0.521769 73.000000 -0.681235 74.000000 -0.861816 75.000000 -1.063457 76.000000 -1.286097 77.000000 -1.529668 78.000000 -1.794095 79.000000 -2.079299 80.000000 -2.385192 81.000000 -2.711681 82.000000 -3.058667 83.000000 -3.426044" stroke-width="5.000000" fill="none"/><polyline stroke="#e4dfc6" points="55.000000 -1.063457 56.000000 -0.861816 57.000000 -0.681235 58.000000 -0.521769 59.000000 -0.383467 60.000000 -0.266371 61.000000 -0.170516 62.000000 -0.095933 63.000000 -0.042642 64.000000 -0.010661 65.000000 0.000000 66.000000 -0.010661 67.000000 -0.042642 68.000000 -0.095933 69.000000 -0.170516 70.000000 -0.266371 71.000000 -0.383467 72.000000 -0.521769 73.000000 -0.681235 74.000000 -0.861816 75.000000 -1.063457 76.000000 -1.286097 77.000000 -1.529668 78.000000 -1.794095 79.000000 -2.079299 80.000000 -2.385192 81.000000 -2.711681 82.000000 -3.058667" stroke-width="3.000000" fill="none"/></g><g transform="rotate(140.600000)"><polyline stroke="#82773f" points="54.000000 -1.286097 55.000000 -1.063457 56.000000 -0.861816 57.000000 -0.681235 58.000000 -0.521769 59.000000 -0.383467 60.000000 -0.266371 61.000000 -0.170516 62.000000 -0.095933 63.000000 -0.042642 64.000000 -0.010661 65.000000 0.000000 66.000000 -0.010661 67.000000 -0.042642 68.000000 -0.095933 69.000000 -0.170516 70.000000 -0.266371 71.000000 -0.383467 72.000000 -0.521769 73.000000 -0.681235 74.000000 -0.861816 75.000000 -1.063457 76.000000 -1.286097 77.000000 -1.529668 78.000000 -1.794095 79.000000 -2.079299 80.000000 -2.385192 81.000000 -2.711681 82.000000 -3.058667 83.000000 -3.426044" stroke-width="5.000000" fill="none"/><polyline stroke="#e4dfc6" points="55.000000 -1.063457 56.000000 -0.861816 57.000000 -0.681235 58.000000 -0.521769 59.000000 -0.383467 60.000000 -0.266371 61.000000 -0.170516 62.000000 -0.095933 63.000000 -0.042642 64.000000 -0.010661 65.000000 0.000000 66.000000 -0.010661 67.000000 -0.042642 68.000000 -0.095933 69.000000 -0.170516 70.000000 -0.266371 71.000000 -0.383467 72.000000 -0.521769 73.000000 -0.681235 74.000000 -0.861816 75.000000 -1.063457 76.000000 -1.286097 77.000000 -1.529668 78.000000 -1.794095 79.000000 -2.079299 80.000000 -2.385192 81.000000 -2.711681 82.000000 -3.058667" stroke-width="3.000000" fill="none"/></g><g transform="rotate(151.850000)"><polyline stroke="#82773f" points="54.000000 -1.286097 55.000000 -1.063457 56.000000 -0.861816 57.000000 -0.681235 58.000000 -0.521769 59.000000 -0.383467 60.000000 -0.266371 61.000000 -0.170516 62.000000 -0.095933 63.000000 -0.042642 64.000000 -0.010661 65.000000 0.000000 66.000000 -0.010661 67.000000 -0.042642 68.000000 -0.095933 69.000000 -0.170516 70.000000 -0.266371 71.000000 -0.383467 72.000000 -0.521769 73.000000 -0.681235 74.000000 -0.861816 75.000000 -1.063457 76.000000 -1.286097 77.000000 -1.529668 78.000000 -1.794095 79.000000 -2.079299 80.000000 -2.385192 81.000000 -2.711681 82.000000 -3.058667 83.000000 -3.426044" stroke-width="5.000000" fill="none"/><polyline stroke="#e4dfc6" points="55.000000 -1.063457 56.000000 -0.861816 57.000000 -0.681235 58.000000 -0.521769 59.000000 -0.383467 60.000000 -0.266371 61.000000 -0.170516 62.000000 -0.095933 63.000000 -0.042642 64.000000 -0.010661 65.000000 0.000000 66.000000 -0.010661 67.000000 -0.042642 68.000000 -0.095933 69.000000 -0.170516 70.000000 -0.266371 71.000000 -0.383467 72.000000 -0.521769 73.000000 -0.681235 74.000000 -0.861816 75.000000 -1.063457 76.000000 -1.286097 77.000000 -1.529668 78.000000 -1.794095 79.000000 -2.079299 80.000000 -2.385192 81.000000 -2.711681 82.000000 -3.058667" stroke-width="3.000000" fill="none"/></g><g transform="rotate(163.100000)"><polyline stroke="#82773f" points="54.000000 -1.286097 55.000000 -1.063457 56.000000 -0.861816 57.000000 -0.681235 58.000000 -0.521769 59.000000 -0.383467 60.000000 -0.266371 61.000000 -0.170516 62.000000 -0.095933 63.000000 -0.042642 64.000000 -0.010661 65.000000 0.000000 66.000000 -0.010661 67.000000 -0.042642 68.000000 -0.095933 69.000000 -0.170516 70.000000 -0.266371 71.000000 -0.383467 72.000000 -0.521769 73.000000 -0.681235 74.000000 -0.861816 75.000000 -1.063457 76.000000 -1.286097 77.000000 -1.529668 78.000000 -1.794095 79.000000 -2.079299 80.000000 -2.385192 81.000000 -2.711681 82.000000 -3.058667 83.000000 -3.426044" stroke-width="5.000000" fill="none"/><polyline stroke="#e4dfc6" points="55.000000 -1.063457 56.000000 -0.861816 57.000000 -0.681235 58.000000 -0.521769 59.000000 -0.383467 60.000000 -0.266371 61.000000 -0.170516 62.000000 -0.095933 63.000000 -0.042642 64.000000 -0.010661 65.000000 0.000000 66.000000 -0.010661 67.000000 -0.042642 68.000000 -0.095933 69.000000 -0.170516 70.000000 -0.266371 71.000000 -0.383467 72.000000 -0.521769 73.000000 -0.681235 74.000000 -0.861816 75.000000 -1.063457 76.000000 -1.286097 77.000000 -1.529668 78.000000 -1.794095 79.000000 -2.079299 80.000000 -2.385192 81.000000 -2.711681 82.000000 -3.058667" stroke-width="3.000000" fill="none"/></g><g transform="rotate(174.350000)"><polyline stroke="#82773f" points="54.000000 -1.286097 55.000000 -1.063457 56.000000 -0.861816 57.000000 -0.681235 58.000000 -0.521769 59.000000 -0.383467 60.000000 -0.266371 61.000000 -0.170516 62.000000 -0.095933 63.000000 -0.042642 64.000000 -0.010661 65.000000 0.000000 66.000000 -0.010661 67.000000 -0.042642 68.000000 -0.095933 69.000000 -0.170516 70.000000 -0.266371 71.000000 -0.383467 72.000000 -0.521769 73.000000 -0.681235 74.000000 -0.861816 75.000000 -1.063457 76.000000 -1.286097 77.000000 -1.529668 78.000000 -1.794095 79.000000 -2.079299 80.000000 -2.385192 81.000000 -2.711681 82.000000 -3.058667 83.000000 -3.426044" stroke-width="5.000000" fill="none"/><polyline stroke="#e4dfc6" points="55.000000 -1.063457 56.000000 -0.861816 57.000000 -0.681235 58.000000 -0.521769 59.000000 -0.383467 60.000000 -0.266371 61.000000 -0.170516 62.000000 -0.095933 63.000000 -0.042642 64.000000 -0.010661 65.000000 0.000000 66.000000 -0.010661 67.000000 -0.042642 68.000000 -0.095933 69.000000 -0.170516 70.000000 -0.266371 71.000000 -0.383467 72.000000 -0.521769 73.000000 -0.681235 74.000000 -0.861816 75.000000 -1.063457 76.000000 -1.286097 77.000000 -1.529668 78.000000 -1.794095 79.000000 -2.079299 80.000000 -2.385192 81.000000 -2.711681 82.000000 -3.058667" stroke-width="3.000000" fill="none"/></g><g transform="rotate(185.600000)"><polyline stroke="#82773f" points="54.000000 -1.286097 55.000000 -1.063457 56.000000 -0.861816 57.000000 -0.681235 58.000000 -0.521769 59.000000 -0.383467 60.000000 -0.266371 61.000000 -0.170516 62.000000 -0.095933 63.000000 -0.042642 64.000000 -0.010661 65.000000 0.000000 66.000000 -0.010661 67.000000 -0.042642 68.000000 -0.095933 69.000000 -0.170516 70.000000 -0.266371 71.000000 -0.383467 72.000000 -0.521769 73.000000 -0.681235 74.000000 -0.861816 75.000000 -1.063457 76.000000 -1.286097 77.000000 -1.529668 78.000000 -1.794095 79.000000 -2.079299 80.000000 -2.385192 81.000000 -2.711681 82.000000 -3.058667 83.000000 -3.426044" stroke-width="5.000000" fill="none"/><polyline stroke="#e4dfc6" points="55.000000 -1.063457 56.000000 -0.861816 57.000000 -0.681235 58.000000 -0.521769 59.000000 -0.383467 60.000000 -0.266371 61.000000 -0.170516 62.000000 -0.095933 63.000000 -0.042642 64.000000 -0.010661 65.000000 0.000000 66.000000 -0.010661 67.000000 -0.042642 68.000000 -0.095933 69.000000 -0.170516 70.000000 -0.266371 71.000000 -0.383467 72.000000 -0.521769 73.000000 -0.681235 74.000000 -0.861816 75.000000 -1.063457 76.000000 -1.286097 77.000000 -1.529668 78.000000 -1.794095 79.000000 -2.079299 80.000000 -2.385192 81.000000 -2.711681 82.000000 -3.058667" stroke-width="3.000000" fill="none"/></g><g transform="rotate(196.850000)"><polyline stroke="#82773f" points="54.000000 -1.286097 55.000000 -1.063457 56.000000 -0.861816 57.000000 -0.681235 58.000000 -0.521769 59.000000 -0.383467 60.000000 -0.266371 61.000000 -0.170516 62.000000 -0.095933 63.000000 -0.042642 64.000000 -0.010661 65.000000 0.000000 66.000000 -0.010661 67.000000 -0.042642 68.000000 -0.095933 69.000000 -0.170516 70.000000 -0.266371 71.000000 -0.383467 72.000000 -0.521769 73.000000 -0.681235 74.000000 -0.861816 75.000000 -1.063457 76.000000 -1.286097 77.000000 -1.529668 78.000000 -1.794095 79.000000 -2.079299 80.000000 -2.385192 81.000000 -2.711681 82.000000 -3.058667 83.000000 -3.426044" stroke-width="5.000000" fill="none"/><polyline stroke="#e4dfc6" points="55.000000 -1.063457 56.000000 -0.861816 57.000000 -0.681235 58.000000 -0.521769 59.000000 -0.383467 60.000000 -0.266371 61.000000 -0.170516 62.000000 -0.095933 63.000000 -0.042642 64.000000 -0.010661 65.000000 0.000000 66.000000 -0.010661 67.000000 -0.042642 68.000000 -0.095933 69.000000 -0.170516 70.000000 -0.266371 71.000000 -0.383467 72.000000 -0.521769 73.000000 -0.681235 74.000000 -0.861816 75.000000 -1.063457 76.000000 -1.286097 77.000000 -1.529668 78.000000 -1.794095 79.000000 -2.079299 80.000000 -2.385192 81.000000 -2.711681 82.000000 -3.058667" stroke-width="3.000000" fill="none"/></g><g transform="rotate(208.100000)"><polyline stroke="#82773f" points="54.000000 -1.286097 55.000000 -1.063457 56.000000 -0.861816 57.000000 -0.681235 58.000000 -0.521769 59.000000 -0.383467 60.000000 -0.266371 61.000000 -0.170516 62.000000 -0.095933 63.000000 -0.042642 64.000000 -0.010661 65.000000 0.000000 66.000000 -0.010661 67.000000 -0.042642 68.000000 -0.095933 69.000000 -0.170516 70.000000 -0.266371 71.000000 -0.383467 72.000000 -0.521769 73.000000 -0.681235 74.000000 -0.861816 75.000000 -1.063457 76.000000 -1.286097 77.000000 -1.529668 78.000000 -1.794095 79.000000 -2.079299 80.000000 -2.385192 81.000000 -2.711681 82.000000 -3.058667 83.000000 -3.426044" stroke-width="5.000000" fill="none"/><polyline stroke="#e4dfc6" points="55.000000 -1.063457 56.000000 -0.861816 57.000000 -0.681235 58.000000 -0.521769 59.000000 -0.383467 60.000000 -0.266371 61.000000 -0.170516 62.000000 -0.095933 63.000000 -0.042642 64.000000 -0.010661 65.000000 0.000000 66.000000 -0.010661 67.000000 -0.042642 68.000000 -0.095933 69.000000 -0.170516 70.000000 -0.266371 71.000000 -0.383467 72.000000 -0.521769 73.000000 -0.681235 74.000000 -0.861816 75.000000 -1.063457 76.000000 -1.286097 77.000000 -1.529668 78.000000 -1.794095 79.000000 -2.079299 80.000000 -2.385192 81.000000 -2.711681 82.000000 -3.058667" stroke-width="3.000000" fill="none"/></g><g transform="rotate(219.350000)"><polyline stroke="#82773f" points="54.000000 -1.286097 55.000000 -1.063457 56.000000 -0.861816 57.000000 -0.681235 58.000000 -0.521769 59.000000 -0.383467 60.000000 -0.266371 61.000000 -0.170516 62.000000 -0.095933 63.000000 -0.042642 64.000000 -0.010661 65.000000 0.000000 66.000000 -0.010661 67.000000 -0.042642 68.000000 -0.095933 69.000000 -0.170516 70.000000 -0.266371 71.000000 -0.383467 72.000000 -0.521769 73.000000 -0.681235 74.000000 -0.861816 75.000000 -1.063457 76.000000 -1.286097 77.000000 -1.529668 78.000000 -1.794095 79.000000 -2.079299 80.000000 -2.385192 81.000000 -2.711681 82.000000 -3.058667 83.000000 -3.426044" stroke-width="5.000000" fill="none"/><polyline stroke="#e4dfc6" points="55.000000 -1.063457 56.000000 -0.861816 57.000000 -0.681235 58.000000 -0.521769 59.000000 -0.383467 60.000000 -0.266371 61.000000 -0.170516 62.000000 -0.095933 63.000000 -0.042642 64.000000 -0.010661 65.000000 0.000000 66.000000 -0.010661 67.000000 -0.042642 68.000000 -0.095933 69.000000 -0.170516 70.000000 -0.266371 71.000000 -0.383467 72.000000 -0.521769 73.000000 -0.681235 74.000000 -0.861816 75.000000 -1.063457 76.000000 -1.286097 77.000000 -1.529668 78.000000 -1.794095 79.000000 -2.079299 80.000000 -2.385192 81.000000 -2.711681 82.000000 -3.058667" stroke-width="3.000000" fill="none"/></g><g transform="rotate(230.600000)"><polyline stroke="#82773f" points="54.000000 -1.286097 55.000000 -1.063457 56.000000 -0.861816 57.000000 -0.681235 58.000000 -0.521769 59.000000 -0.383467 60.000000 -0.266371 61.000000 -0.170516 62.000000 -0.095933 63.000000 -0.042642 64.000000 -0.010661 65.000000 0.000000 66.000000 -0.010661 67.000000 -0.042642 68.000000 -0.095933 69.000000 -0.170516 70.000000 -0.266371 71.000000 -0.383467 72.000000 -0.521769 73.000000 -0.681235 74.000000 -0.861816 75.000000 -1.063457 76.000000 -1.286097 77.000000 -1.529668 78.000000 -1.794095 79.000000 -2.079299 80.000000 -2.385192 81.000000 -2.711681 82.000000 -3.058667 83.000000 -3.426044" stroke-width="5.000000" fill="none"/><polyline stroke="#e4dfc6" points="55.000000 -1.063457 56.000000 -0.861816 57.000000 -0.681235 58.000000 -0.521769 59.000000 -0.383467 60.000000 -0.266371 61.000000 -0.170516 62.000000 -0.095933 63.000000 -0.042642 64.000000 -0.010661 65.000000 0.000000 66.000000 -0.010661 67.000000 -0.042642 68.000000 -0.095933 69.000000 -0.170516 70.000000 -0.266371 71.000000 -0.383467 72.000000 -0.521769 73.000000 -0.681235 74.000000 -0.861816 75.000000 -1.063457 76.000000 -1.286097 77.000000 -1.529668 78.000000 -1.794095 79.000000 -2.079299 80.000000 -2.385192 81.000000 -2.711681 82.000000 -3.058667" stroke-width="3.000000" fill="none"/></g><g transform="rotate(241.850000)"><polyline stroke="#82773f" points="54.000000 -1.286097 55.000000 -1.063457 56.000000 -0.861816 57.000000 -0.681235 58.000000 -0.521769 59.000000 -0.383467 60.000000 -0.266371 61.000000 -0.170516 62.000000 -0.095933 63.000000 -0.042642 64.000000 -0.010661 65.000000 0.000000 66.000000 -0.010661 67.000000 -0.042642 68.000000 -0.095933 69.000000 -0.170516 70.000000 -0.266371 71.000000 -0.383467 72.000000 -0.521769 73.000000 -0.681235 74.000000 -0.861816 75.000000 -1.063457 76.000000 -1.286097 77.000000 -1.529668 78.000000 -1.794095 79.000000 -2.079299 80.000000 -2.385192 81.000000 -2.711681 82.000000 -3.058667 83.000000 -3.426044" stroke-width="5.000000" fill="none"/><polyline stroke="#e4dfc6" points="55.000000 -1.063457 56.000000 -0.861816 57.000000 -0.681235 58.000000 -0.521769 59.000000 -0.383467 60.000000 -0.266371 61.000000 -0.170516 62.000000 -0.095933 63.000000 -0.042642 64.000000 -0.010661 65.000000 0.000000 66.000000 -0.010661 67.000000 -0.042642 68.000000 -0.095933 69.000000 -0.170516 70.000000 -0.266371 71.000000 -0.383467 72.000000 -0.521769 73.000000 -0.681235 74.000000 -0.861816 75.000000 -1.063457 76.000000 -1.286097 77.000000 -1.529668 78.000000 -1.794095 79.000000 -2.079299 80.000000 -2.385192 81.000000 -2.711681 82.000000 -3.058667" stroke-width="3.000000" fill="none"/></g><g transform="rotate(253.100000)"><polyline stroke="#82773f" points="54.000000 -1.286097 55.000000 -1.063457 56.000000 -0.861816 57.000000 -0.681235 58.000000 -0.521769 59.000000 -0.383467 60.000000 -0.266371 61.000000 -0.170516 62.000000 -0.095933 63.000000 -0.042642 64.000000 -0.010661 65.000000 0.000000 66.000000 -0.010661 67.000000 -0.042642 68.000000 -0.095933 69.000000 -0.170516 70.000000 -0.266371 71.000000 -0.383467 72.000000 -0.521769 73.000000 -0.681235 74.000000 -0.861816 75.000000 -1.063457 76.000000 -1.286097 77.000000 -1.529668 78.000000 -1.794095 79.000000 -2.079299 80.000000 -2.385192 81.000000 -2.711681 82.000000 -3.058667 83.000000 -3.426044" stroke-width="5.000000" fill="none"/><polyline stroke="#e4dfc6" points="55.000000 -1.063457 56.000000 -0.861816 57.000000 -0.681235 58.000000 -0.521769 59.000000 -0.383467 60.000000 -0.266371 61.000000 -0.170516 62.000000 -0.095933 63.000000 -0.042642 64.000000 -0.010661 65.000000 0.000000 66.000000 -0.010661 67.000000 -0.042642 68.000000 -0.095933 69.000000 -0.170516 70.000000 -0.266371 71.000000 -0.383467 72.000000 -0.521769 73.000000 -0.681235 74.000000 -0.861816 75.000000 -1.063457 76.000000 -1.286097 77.000000 -1.529668 78.000000 -1.794095 79.000000 -2.079299 80.000000 -2.385192 81.000000 -2.711681 82.000000 -3.058667" stroke-width="3.000000" fill="none"/></g><g transform="rotate(264.350000)"><polyline stroke="#82773f" points="54.000000 -1.286097 55.000000 -1.063457 56.000000 -0.861816 57.000000 -0.681235 58.000000 -0.521769 59.000000 -0.383467 60.000000 -0.266371 61.000000 -0.170516 62.000000 -0.095933 63.000000 -0.042642 64.000000 -0.010661 65.000000 0.000000 66.000000 -0.010661 67.000000 -0.042642 68.000000 -0.095933 69.000000 -0.170516 70.000000 -0.266371 71.000000 -0.383467 72.000000 -0.521769 73.000000 -0.681235 74.000000 -0.861816 75.000000 -1.063457 76.000000 -1.286097 77.000000 -1.529668 78.000000 -1.794095 79.000000 -2.079299 80.000000 -2.385192 81.000000 -2.711681 82.000000 -3.058667 83.000000 -3.426044" stroke-width="5.000000" fill="none"/><polyline stroke="#e4dfc6" points="55.000000 -1.063457 56.000000 -0.861816 57.000000 -0.681235 58.000000 -0.521769 59.000000 -0.383467 60.000000 -0.266371 61.000000 -0.170516 62.000000 -0.095933 63.000000 -0.042642 64.000000 -0.010661 65.000000 0.000000 66.000000 -0.010661 67.000000 -0.042642 68.000000 -0.095933 69.000000 -0.170516 70.000000 -0.266371 71.000000 -0.383467 72.000000 -0.521769 73.000000 -0.681235 74.000000 -0.861816 75.000000 -1.063457 76.000000 -1.286097 77.000000 -1.529668 78.000000 -1.794095 79.000000 -2.079299 80.000000 -2.385192 81.000000 -2.711681 82.000000 -3.058667" stroke-width="3.000000" fill="none"/></g><g transform="rotate(275.600000)"><polyline stroke="#82773f" points="54.000000 -1.286097 55.000000 -1.063457 56.000000 -0.861816 57.000000 -0.681235 58.000000 -0.521769 59.000000 -0.383467 60.000000 -0.266371 61.000000 -0.170516 62.000000 -0.095933 63.000000 -0.042642 64.000000 -0.010661 65.000000 0.000000 66.000000 -0.010661 67.000000 -0.042642 68.000000 -0.095933 69.000000 -0.170516 70.000000 -0.266371 71.000000 -0.383467 72.000000 -0.521769 73.000000 -0.681235 74.000000 -0.861816 75.000000 -1.063457 76.000000 -1.286097 77.000000 -1.529668 78.000000 -1.794095 79.000000 -2.079299 80.000000 -2.385192 81.000000 -2.711681 82.000000 -3.058667 83.000000 -3.426044" stroke-width="5.000000" fill="none"/><polyline stroke="#e4dfc6" points="55.000000 -1.063457 56.000000 -0.861816 57.000000 -0.681235 58.000000 -0.521769 59.000000 -0.383467 60.000000 -0.266371 61.000000 -0.170516 62.000000 -0.095933 63.000000 -0.042642 64.000000 -0.010661 65.000000 0.000000 66.000000 -0.010661 67.000000 -0.042642 68.000000 -0.095933 69.000000 -0.170516 70.000000 -0.266371 71.000000 -0.383467 72.000000 -0.521769 73.000000 -0.681235 74.000000 -0.861816 75.000000 -1.063457 76.000000 -1.286097 77.000000 -1.529668 78.000000 -1.794095 79.000000 -2.079299 80.000000 -2.385192 81.000000 -2.711681 82.000000 -3.058667" stroke-width="3.000000" fill="none"/></g><g transform="rotate(286.850000)"><polyline stroke="#82773f" points="54.000000 -1.286097 55.000000 -1.063457 56.000000 -0.861816 57.000000 -0.681235 58.000000 -0.521769 59.000000 -0.383467 60.000000 -0.266371 61.000000 -0.170516 62.000000 -0.095933 63.000000 -0.042642 64.000000 -0.010661 65.000000 0.000000 66.000000 -0.010661 67.000000 -0.042642 68.000000 -0.095933 69.000000 -0.170516 70.000000 -0.266371 71.000000 -0.383467 72.000000 -0.521769 73.000000 -0.681235 74.000000 -0.861816 75.000000 -1.063457 76.000000 -1.286097 77.000000 -1.529668 78.000000 -1.794095 79.000000 -2.079299 80.000000 -2.385192 81.000000 -2.711681 82.000000 -3.058667 83.000000 -3.426044" stroke-width="5.000000" fill="none"/><polyline stroke="#e4dfc6" points="55.000000 -1.063457 56.000000 -0.861816 57.000000 -0.681235 58.000000 -0.521769 59.000000 -0.383467 60.000000 -0.266371 61.000000 -0.170516 62.000000 -0.095933 63.000000 -0.042642 64.000000 -0.010661 65.000000 0.000000 66.000000 -0.010661 67.000000 -0.042642 68.000000 -0.095933 69.000000 -0.170516 70.000000 -0.266371 71.000000 -0.383467 72.000000 -0.521769 73.000000 -0.681235 74.000000 -0.861816 75.000000 -1.063457 76.000000 -1.286097 77.000000 -1.529668 78.000000 -1.794095 79.000000 -2.079299 80.000000 -2.385192 81.000000 -2.711681 82.000000 -3.058667" stroke-width="3.000000" fill="none"/></g><g transform="rotate(298.100000)"><polyline stroke="#82773f" points="54.000000 -1.286097 55.000000 -1.063457 56.000000 -0.861816 57.000000 -0.681235 58.000000 -0.521769 59.000000 -0.383467 60.000000 -0.266371 61.000000 -0.170516 62.000000 -0.095933 63.000000 -0.042642 64.000000 -0.010661 65.000000 0.000000 66.000000 -0.010661 67.000000 -0.042642 68.000000 -0.095933 69.000000 -0.170516 70.000000 -0.266371 71.000000 -0.383467 72.000000 -0.521769 73.000000 -0.681235 74.000000 -0.861816 75.000000 -1.063457 76.000000 -1.286097 77.000000 -1.529668 78.000000 -1.794095 79.000000 -2.079299 80.000000 -2.385192 81.000000 -2.711681 82.000000 -3.058667 83.000000 -3.426044" stroke-width="5.000000" fill="none"/><polyline stroke="#e4dfc6" points="55.000000 -1.063457 56.000000 -0.861816 57.000000 -0.681235 58.000000 -0.521769 59.000000 -0.383467 60.000000 -0.266371 61.000000 -0.170516 62.000000 -0.095933 63.000000 -0.042642 64.000000 -0.010661 65.000000 0.000000 66.000000 -0.010661 67.000000 -0.042642 68.000000 -0.095933 69.000000 -0.170516 70.000000 -0.266371 71.000000 -0.383467 72.000000 -0.521769 73.000000 -0.681235 74.000000 -0.861816 75.000000 -1.063457 76.000000 -1.286097 77.000000 -1.529668 78.000000 -1.794095 79.000000 -2.079299 80.000000 -2.385192 81.000000 -2.711681 82.000000 -3.058667" stroke-width="3.000000" fill="none"/></g><g transform="rotate(309.350000)"><polyline stroke="#82773f" points="54.000000 -1.286097 55.000000 -1.063457 56.000000 -0.861816 57.000000 -0.681235 58.000000 -0.521769 59.000000 -0.383467 60.000000 -0.266371 61.000000 -0.170516 62.000000 -0.095933 63.000000 -0.042642 64.000000 -0.010661 65.000000 0.000000 66.000000 -0.010661 67.000000 -0.042642 68.000000 -0.095933 69.000000 -0.170516 70.000000 -0.266371 71.000000 -0.383467 72.000000 -0.521769 73.000000 -0.681235 74.000000 -0.861816 75.000000 -1.063457 76.000000 -1.286097 77.000000 -1.529668 78.000000 -1.794095 79.000000 -2.079299 80.000000 -2.385192 81.000000 -2.711681 82.000000 -3.058667 83.000000 -3.426044" stroke-width="5.000000" fill="none"/><polyline stroke="#e4dfc6" points="55.000000 -1.063457 56.000000 -0.861816 57.000000 -0.681235 58.000000 -0.521769 59.000000 -0.383467 60.000000 -0.266371 61.000000 -0.170516 62.000000 -0.095933 63.000000 -0.042642 64.000000 -0.010661 65.000000 0.000000 66.000000 -0.010661 67.000000 -0.042642 68.000000 -0.095933 69.000000 -0.170516 70.000000 -0.266371 71.000000 -0.383467 72.000000 -0.521769 73.000000 -0.681235 74.000000 -0.861816 75.000000 -1.063457 76.000000 -1.286097 77.000000 -1.529668 78.000000 -1.794095 79.000000 -2.079299 80.000000 -2.385192 81.000000 -2.711681 82.000000 -3.058667" stroke-width="3.000000" fill="none"/></g><g transform="rotate(320.600000)"><polyline stroke="#82773f" points="54.000000 -1.286097 55.000000 -1.063457 56.000000 -0.861816 57.000000 -0.681235 58.000000 -0.521769 59.000000 -0.383467 60.000000 -0.266371 61.000000 -0.170516 62.000000 -0.095933 63.000000 -0.042642 64.000000 -0.010661 65.000000 0.000000 66.000000 -0.010661 67.000000 -0.042642 68.000000 -0.095933 69.000000 -0.170516 70.000000 -0.266371 71.000000 -0.383467 72.000000 -0.521769 73.000000 -0.681235 74.000000 -0.861816 75.000000 -1.063457 76.000000 -1.286097 77.000000 -1.529668 78.000000 -1.794095 79.000000 -2.079299 80.000000 -2.385192 81.000000 -2.711681 82.000000 -3.058667 83.000000 -3.426044" stroke-width="5.000000" fill="none"/><polyline stroke="#e4dfc6" points="55.000000 -1.063457 56.000000 -0.861816 57.000000 -0.681235 58.000000 -0.521769 59.000000 -0.383467 60.000000 -0.266371 61.000000 -0.170516 62.000000 -0.095933 63.000000 -0.042642 64.000000 -0.010661 65.000000 0.000000 66.000000 -0.010661 67.000000 -0.042642 68.000000 -0.095933 69.000000 -0.170516 70.000000 -0.266371 71.000000 -0.383467 72.000000 -0.521769 73.000000 -0.681235 74.000000 -0.861816 75.000000 -1.063457 76.000000 -1.286097 77.000000 -1.529668 78.000000 -1.794095 79.000000 -2.079299 80.000000 -2.385192 81.000000 -2.711681 82.000000 -3.058667" stroke-width="3.000000" fill="none"/></g><g transform="rotate(331.850000)"><polyline stroke="#82773f" points="54.000000 -1.286097 55.000000 -1.063457 56.000000 -0.861816 57.000000 -0.681235 58.000000 -0.521769 59.000000 -0.383467 60.000000 -0.266371 61.000000 -0.170516 62.000000 -0.095933 63.000000 -0.042642 64.000000 -0.010661 65.000000 0.000000 66.000000 -0.010661 67.000000 -0.042642 68.000000 -0.095933 69.000000 -0.170516 70.000000 -0.266371 71.000000 -0.383467 72.000000 -0.521769 73.000000 -0.681235 74.000000 -0.861816 75.000000 -1.063457 76.000000 -1.286097 77.000000 -1.529668 78.000000 -1.794095 79.000000 -2.079299 80.000000 -2.385192 81.000000 -2.711681 82.000000 -3.058667 83.000000 -3.426044" stroke-width="5.000000" fill="none"/><polyline stroke="#e4dfc6" points="55.000000 -1.063457 56.000000 -0.861816 57.000000 -0.681235 58.000000 -0.521769 59.000000 -0.383467 60.000000 -0.266371 61.000000 -0.170516 62.000000 -0.095933 63.000000 -0.042642 64.000000 -0.010661 65.000000 0.000000 66.000000 -0.010661 67.000000 -0.042642 68.000000 -0.095933 69.000000 -0.170516 70.000000 -0.266371 71.000000 -0.383467 72.000000 -0.521769 73.000000 -0.681235 74.000000 -0.861816 75.000000 -1.063457 76.000000 -1.286097 77.000000 -1.529668 78.000000 -1.794095 79.000000 -2.079299 80.000000 -2.385192 81.000000 -2.711681 82.000000 -3.058667" stroke-width="3.000000" fill="none"/></g><g transform="rotate(343.100000)"><polyline stroke="#82773f" points="54.000000 -1.286097 55.000000 -1.063457 56.000000 -0.861816 57.000000 -0.681235 58.000000 -0.521769 59.000000 -0.383467 60.000000 -0.266371 61.000000 -0.170516 62.000000 -0.095933 63.000000 -0.042642 64.000000 -0.010661 65.000000 0.000000 66.000000 -0.010661 67.000000 -0.042642 68.000000 -0.095933 69.000000 -0.170516 70.000000 -0.266371 71.000000 -0.383467 72.000000 -0.521769 73.000000 -0.681235 74.000000 -0.861816 75.000000 -1.063457 76.000000 -1.286097 77.000000 -1.529668 78.000000 -1.794095 79.000000 -2.079299 80.000000 -2.385192 81.000000 -2.711681 82.000000 -3.058667 83.000000 -3.426044" stroke-width="5.000000" fill="none"/><polyline stroke="#e4dfc6" points="55.000000 -1.063457 56.000000 -0.861816 57.000000 -0.681235 58.000000 -0.521769 59.000000 -0.383467 60.000000 -0.266371 61.000000 -0.170516 62.000000 -0.095933 63.000000 -0.042642 64.000000 -0.010661 65.000000 0.000000 66.000000 -0.010661 67.000000 -0.042642 68.000000 -0.095933 69.000000 -0.170516 70.000000 -0.266371 71.000000 -0.383467 72.000000 -0.521769 73.000000 -0.681235 74.000000 -0.861816 75.000000 -1.063457 76.000000 -1.286097 77.000000 -1.529668 78.000000 -1.794095 79.000000 -2.079299 80.000000 -2.385192 81.000000 -2.711681 82.000000 -3.058667" stroke-width="3.000000" fill="none"/></g><g transform="rotate(354.350000)"><polyline stroke="#82773f" points="54.000000 -1.286097 55.000000 -1.063457 56.000000 -0.861816 57.000000 -0.681235 58.000000 -0.521769 59.000000 -0.383467 60.000000 -0.266371 61.000000 -0.170516 62.000000 -0.095933 63.000000 -0.042642 64.000000 -0.010661 65.000000 0.000000 66.000000 -0.010661 67.000000 -0.042642 68.000000 -0.095933 69.000000 -0.170516 70.000000 -0.266371 71.000000 -0.383467 72.000000 -0.521769 73.000000 -0.681235 74.000000 -0.861816 75.000000 -1.063457 76.000000 -1.286097 77.000000 -1.529668 78.000000 -1.794095 79.000000 -2.079299 80.000000 -2.385192 81.000000 -2.711681 82.000000 -3.058667 83.000000 -3.426044" stroke-width="5.000000" fill="none"/><polyline stroke="#e4dfc6" points="55.000000 -1.063457 56.000000 -0.861816 57.000000 -0.681235 58.000000 -0.521769 59.000000 -0.383467 60.000000 -0.266371 61.000000 -0.170516 62.000000 -0.095933 63.000000 -0.042642 64.000000 -0.010661 65.000000 0.000000 66.000000 -0.010661 67.000000 -0.042642 68.000000 -0.095933 69.000000 -0.170516 70.000000 -0.266371 71.000000 -0.383467 72.000000 -0.521769 73.000000 -0.681235 74.000000 -0.861816 75.000000 -1.063457 76.000000 -1.286097 77.000000 -1.529668 78.000000 -1.794095 79.000000 -2.079299 80.000000 -2.385192 81.000000 -2.711681 82.000000 -3.058667" stroke-width="3.000000" fill="none"/></g><circle stroke-width="6.000000" stroke="#e4dfc6" cy="0.000000" cx="0.000000" r="65.000000" fill="none"/><circle stroke-width="1.000000" stroke="#82773f" cy="0.000000" cx="0.000000" r="68.000000" fill="none"/><circle stroke-width="1.000000" stroke="#82773f" cy="0.000000" cx="0.000000" r="62.000000" fill="none"/><g transform="rotate(5.600000)"><circle stroke-width="1.000000" stroke="#82773f" cy="0.100000" cx="64.000000" r="0.100000" fill="none"/><circle stroke-width="1.000000" stroke="#82773f" cy="0.000000" cx="66.000000" r="0.100000" fill="none"/></g><g transform="rotate(16.850000)"><circle stroke-width="1.000000" stroke="#82773f" cy="0.100000" cx="64.000000" r="0.100000" fill="none"/><circle stroke-width="1.000000" stroke="#82773f" cy="0.000000" cx="66.000000" r="0.100000" fill="none"/></g><g transform="rotate(28.100000)"><circle stroke-width="1.000000" stroke="#82773f" cy="0.100000" cx="64.000000" r="0.100000" fill="none"/><circle stroke-width="1.000000" stroke="#82773f" cy="0.000000" cx="66.000000" r="0.100000" fill="none"/></g><g transform="rotate(39.350000)"><circle stroke-width="1.000000" stroke="#82773f" cy="0.100000" cx="64.000000" r="0.100000" fill="none"/><circle stroke-width="1.000000" stroke="#82773f" cy="0.000000" cx="66.000000" r="0.100000" fill="none"/></g><g transform="rotate(50.600000)"><circle stroke-width="1.000000" stroke="#82773f" cy="0.100000" cx="64.000000" r="0.100000" fill="none"/><circle stroke-width="1.000000" stroke="#82773f" cy="0.000000" cx="66.000000" r="0.100000" fill="none"/></g><g transform="rotate(61.850000)"><circle stroke-width="1.000000" stroke="#82773f" cy="0.100000" cx="64.000000" r="0.100000" fill="none"/><circle stroke-width="1.000000" stroke="#82773f" cy="0.000000" cx="66.000000" r="0.100000" fill="none"/></g><g transform="rotate(73.100000)"><circle stroke-width="1.000000" stroke="#82773f" cy="0.100000" cx="64.000000" r="0.100000" fill="none"/><circle stroke-width="1.000000" stroke="#82773f" cy="0.000000" cx="66.000000" r="0.100000" fill="none"/></g><g transform="rotate(84.350000)"><circle stroke-width="1.000000" stroke="#82773f" cy="0.100000" cx="64.000000" r="0.100000" fill="none"/><circle stroke-width="1.000000" stroke="#82773f" cy="0.000000" cx="66.000000" r="0.100000" fill="none"/></g><g transform="rotate(95.600000)"><circle stroke-width="1.000000" stroke="#82773f" cy="0.100000" cx="64.000000" r="0.100000" fill="none"/><circle stroke-width="1.000000" stroke="#82773f" cy="0.000000" cx="66.000000" r="0.100000" fill="none"/></g><g transform="rotate(106.850000)"><circle stroke-width="1.000000" stroke="#82773f" cy="0.100000" cx="64.000000" r="0.100000" fill="none"/><circle stroke-width="1.000000" stroke="#82773f" cy="0.000000" cx="66.000000" r="0.100000" fill="none"/></g><g transform="rotate(118.100000)"><circle stroke-width="1.000000" stroke="#82773f" cy="0.100000" cx="64.000000" r="0.100000" fill="none"/><circle stroke-width="1.000000" stroke="#82773f" cy="0.000000" cx="66.000000" r="0.100000" fill="none"/></g><g transform="rotate(129.350000)"><circle stroke-width="1.000000" stroke="#82773f" cy="0.100000" cx="64.000000" r="0.100000" fill="none"/><circle stroke-width="1.000000" stroke="#82773f" cy="0.000000" cx="66.000000" r="0.100000" fill="none"/></g><g transform="rotate(140.600000)"><circle stroke-width="1.000000" stroke="#82773f" cy="0.100000" cx="64.000000" r="0.100000" fill="none"/><circle stroke-width="1.000000" stroke="#82773f" cy="0.000000" cx="66.000000" r="0.100000" fill="none"/></g><g transform="rotate(151.850000)"><circle stroke-width="1.000000" stroke="#82773f" cy="0.100000" cx="64.000000" r="0.100000" fill="none"/><circle stroke-width="1.000000" stroke="#82773f" cy="0.000000" cx="66.000000" r="0.100000" fill="none"/></g><g transform="rotate(163.100000)"><circle stroke-width="1.000000" stroke="#82773f" cy="0.100000" cx="64.000000" r="0.100000" fill="none"/><circle stroke-width="1.000000" stroke="#82773f" cy="0.000000" cx="66.000000" r="0.100000" fill="none"/></g><g transform="rotate(174.350000)"><circle stroke-width="1.000000" stroke="#82773f" cy="0.100000" cx="64.000000" r="0.100000" fill="none"/><circle stroke-width="1.000000" stroke="#82773f" cy="0.000000" cx="66.000000" r="0.100000" fill="none"/></g><g transform="rotate(185.600000)"><circle stroke-width="1.000000" stroke="#82773f" cy="0.100000" cx="64.000000" r="0.100000" fill="none"/><circle stroke-width="1.000000" stroke="#82773f" cy="0.000000" cx="66.000000" r="0.100000" fill="none"/></g><g transform="rotate(196.850000)"><circle stroke-width="1.000000" stroke="#82773f" cy="0.100000" cx="64.000000" r="0.100000" fill="none"/><circle stroke-width="1.000000" stroke="#82773f" cy="0.000000" cx="66.000000" r="0.100000" fill="none"/></g><g transform="rotate(208.100000)"><circle stroke-width="1.000000" stroke="#82773f" cy="0.100000" cx="64.000000" r="0.100000" fill="none"/><circle stroke-width="1.000000" stroke="#82773f" cy="0.000000" cx="66.000000" r="0.100000" fill="none"/></g><g transform="rotate(219.350000)"><circle stroke-width="1.000000" stroke="#82773f" cy="0.100000" cx="64.000000" r="0.100000" fill="none"/><circle stroke-width="1.000000" stroke="#82773f" cy="0.000000" cx="66.000000" r="0.100000" fill="none"/></g><g transform="rotate(230.600000)"><circle stroke-width="1.000000" stroke="#82773f" cy="0.100000" cx="64.000000" r="0.100000" fill="none"/><circle stroke-width="1.000000" stroke="#82773f" cy="0.000000" cx="66.000000" r="0.100000" fill="none"/></g><g transform="rotate(241.850000)"><circle stroke-width="1.000000" stroke="#82773f" cy="0.100000" cx="64.000000" r="0.100000" fill="none"/><circle stroke-width="1.000000" stroke="#82773f" cy="0.000000" cx="66.000000" r="0.100000" fill="none"/></g><g transform="rotate(253.100000)"><circle stroke-width="1.000000" stroke="#82773f" cy="0.100000" cx="64.000000" r="0.100000" fill="none"/><circle stroke-width="1.000000" stroke="#82773f" cy="0.000000" cx="66.000000" r="0.100000" fill="none"/></g><g transform="rotate(264.350000)"><circle stroke-width="1.000000" stroke="#82773f" cy="0.100000" cx="64.000000" r="0.100000" fill="none"/><circle stroke-width="1.000000" stroke="#82773f" cy="0.000000" cx="66.000000" r="0.100000" fill="none"/></g><g transform="rotate(275.600000)"><circle stroke-width="1.000000" stroke="#82773f" cy="0.100000" cx="64.000000" r="0.100000" fill="none"/><circle stroke-width="1.000000" stroke="#82773f" cy="0.000000" cx="66.000000" r="0.100000" fill="none"/></g><g transform="rotate(286.850000)"><circle stroke-width="1.000000" stroke="#82773f" cy="0.100000" cx="64.000000" r="0.100000" fill="none"/><circle stroke-width="1.000000" stroke="#82773f" cy="0.000000" cx="66.000000" r="0.100000" fill="none"/></g><g transform="rotate(298.100000)"><circle stroke-width="1.000000" stroke="#82773f" cy="0.100000" cx="64.000000" r="0.100000" fill="none"/><circle stroke-width="1.000000" stroke="#82773f" cy="0.000000" cx="66.000000" r="0.100000" fill="none"/></g><g transform="rotate(309.350000)"><circle stroke-width="1.000000" stroke="#82773f" cy="0.100000" cx="64.000000" r="0.100000" fill="none"/><circle stroke-width="1.000000" stroke="#82773f" cy="0.000000" cx="66.000000" r="0.100000" fill="none"/></g><g transform="rotate(320.600000)"><circle stroke-width="1.000000" stroke="#82773f" cy="0.100000" cx="64.000000" r="0.100000" fill="none"/><circle stroke-width="1.000000" stroke="#82773f" cy="0.000000" cx="66.000000" r="0.100000" fill="none"/></g><g transform="rotate(331.850000)"><circle stroke-width="1.000000" stroke="#82773f" cy="0.100000" cx="64.000000" r="0.100000" fill="none"/><circle stroke-width="1.000000" stroke="#82773f" cy="0.000000" cx="66.000000" r="0.100000" fill="none"/></g><g transform="rotate(343.100000)"><circle stroke-width="1.000000" stroke="#82773f" cy="0.100000" cx="64.000000" r="0.100000" fill="none"/><circle stroke-width="1.000000" stroke="#82773f" cy="0.000000" cx="66.000000" r="0.100000" fill="none"/></g><g transform="rotate(354.350000)"><circle stroke-width="1.000000" stroke="#82773f" cy="0.100000" cx="64.000000" r="0.100000" fill="none"/><circle stroke-width="1.000000" stroke="#82773f" cy="0.000000" cx="66.000000" r="0.100000" fill="none"/></g><circle stroke-width="2.000000" stroke="#82773f" cy="0.000000" cx="0.000000" r="17.000000" fill="none"/><g transform="rotate(22.500000)"><rect stroke-width="1.000000" height="6.000000" width="17.000000" stroke="#82773f" y="-3.000000" x="0.000000" fill="#e4dfc6"/></g><g transform="rotate(67.500000)"><rect stroke-width="1.000000" height="6.000000" width="17.000000" stroke="#82773f" y="-3.000000" x="0.000000" fill="#e4dfc6"/></g><g transform="rotate(112.500000)"><rect stroke-width="1.000000" height="6.000000" width="17.000000" stroke="#82773f" y="-3.000000" x="0.000000" fill="#e4dfc6"/></g><g transform="rotate(157.500000)"><rect stroke-width="1.000000" height="6.000000" width="17.000000" stroke="#82773f" y="-3.000000" x="0.000000" fill="#e4dfc6"/></g><g transform="rotate(202.500000)"><rect stroke-width="1.000000" height="6.000000" width="17.000000" stroke="#82773f" y="-3.000000" x="0.000000" fill="#e4dfc6"/></g><g transform="rotate(247.500000)"><rect stroke-width="1.000000" height="6.000000" width="17.000000" stroke="#82773f" y="-3.000000" x="0.000000" fill="#e4dfc6"/></g><g transform="rotate(292.500000)"><rect stroke-width="1.000000" height="6.000000" width="17.000000" stroke="#82773f" y="-3.000000" x="0.000000" fill="#e4dfc6"/></g><g transform="rotate(337.500000)"><rect stroke-width="1.000000" height="6.000000" width="17.000000" stroke="#82773f" y="-3.000000" x="0.000000" fill="#e4dfc6"/></g><g transform="rotate(22.500000)"><rect stroke-width="1.000000" height="4.000000" width="70.000000" stroke="#82773f" y="-2.000000" x="0.000000" fill="#e4dfc6"/><circle stroke-width="1.000000" stroke="#82773f" cy="0.000000" cx="6.000000" r="0.100000" fill="none"/><circle stroke-width="1.000000" stroke="#82773f" cy="0.000000" cx="10.000000" r="0.100000" fill="none"/><circle stroke-width="1.000000" stroke="#82773f" cy="0.000000" cx="14.000000" r="0.100000" fill="none"/><circle stroke-width="1.000000" stroke="#82773f" cy="0.000000" cx="63.500000" r="0.100000" fill="none"/><circle stroke-width="1.000000" stroke="#82773f" cy="0.000000" cx="66.500000" r="0.100000" fill="none"/></g><g transform="rotate(67.500000)"><rect stroke-width="1.000000" height="4.000000" width="70.000000" stroke="#82773f" y="-2.000000" x="0.000000" fill="#e4dfc6"/><circle stroke-width="1.000000" stroke="#82773f" cy="0.000000" cx="6.000000" r="0.100000" fill="none"/><circle stroke-width="1.000000" stroke="#82773f" cy="0.000000" cx="10.000000" r="0.100000" fill="none"/><circle stroke-width="1.000000" stroke="#82773f" cy="0.000000" cx="14.000000" r="0.100000" fill="none"/><circle stroke-width="1.000000" stroke="#82773f" cy="0.000000" cx="63.500000" r="0.100000" fill="none"/><circle stroke-width="1.000000" stroke="#82773f" cy="0.000000" cx="66.500000" r="0.100000" fill="none"/></g><g transform="rotate(112.500000)"><rect stroke-width="1.000000" height="4.000000" width="70.000000" stroke="#82773f" y="-2.000000" x="0.000000" fill="#e4dfc6"/><circle stroke-width="1.000000" stroke="#82773f" cy="0.000000" cx="6.000000" r="0.100000" fill="none"/><circle stroke-width="1.000000" stroke="#82773f" cy="0.000000" cx="10.000000" r="0.100000" fill="none"/><circle stroke-width="1.000000" stroke="#82773f" cy="0.000000" cx="14.000000" r="0.100000" fill="none"/><circle stroke-width="1.000000" stroke="#82773f" cy="0.000000" cx="63.500000" r="0.100000" fill="none"/><circle stroke-width="1.000000" stroke="#82773f" cy="0.000000" cx="66.500000" r="0.100000" fill="none"/></g><g transform="rotate(157.500000)"><rect stroke-width="1.000000" height="4.000000" width="70.000000" stroke="#82773f" y="-2.000000" x="0.000000" fill="#e4dfc6"/><circle stroke-width="1.000000" stroke="#82773f" cy="0.000000" cx="6.000000" r="0.100000" fill="none"/><circle stroke-width="1.000000" stroke="#82773f" cy="0.000000" cx="10.000000" r="0.100000" fill="none"/><circle stroke-width="1.000000" stroke="#82773f" cy="0.000000" cx="14.000000" r="0.100000" fill="none"/><circle stroke-width="1.000000" stroke="#82773f" cy="0.000000" cx="63.500000" r="0.100000" fill="none"/><circle stroke-width="1.000000" stroke="#82773f" cy="0.000000" cx="66.500000" r="0.100000" fill="none"/></g><g transform="rotate(202.500000)"><rect stroke-width="1.000000" height="4.000000" width="70.000000" stroke="#82773f" y="-2.000000" x="0.000000" fill="#e4dfc6"/><circle stroke-width="1.000000" stroke="#82773f" cy="0.000000" cx="6.000000" r="0.100000" fill="none"/><circle stroke-width="1.000000" stroke="#82773f" cy="0.000000" cx="10.000000" r="0.100000" fill="none"/><circle stroke-width="1.000000" stroke="#82773f" cy="0.000000" cx="14.000000" r="0.100000" fill="none"/><circle stroke-width="1.000000" stroke="#82773f" cy="0.000000" cx="63.500000" r="0.100000" fill="none"/><circle stroke-width="1.000000" stroke="#82773f" cy="0.000000" cx="66.500000" r="0.100000" fill="none"/></g><g transform="rotate(247.500000)"><rect stroke-width="1.000000" height="4.000000" width="70.000000" stroke="#82773f" y="-2.000000" x="0.000000" fill="#e4dfc6"/><circle stroke-width="1.000000" stroke="#82773f" cy="0.000000" cx="6.000000" r="0.100000" fill="none"/><circle stroke-width="1.000000" stroke="#82773f" cy="0.000000" cx="10.000000" r="0.100000" fill="none"/><circle stroke-width="1.000000" stroke="#82773f" cy="0.000000" cx="14.000000" r="0.100000" fill="none"/><circle stroke-width="1.000000" stroke="#82773f" cy="0.000000" cx="63.500000" r="0.100000" fill="none"/><circle stroke-width="1.000000" stroke="#82773f" cy="0.000000" cx="66.500000" r="0.100000" fill="none"/></g><g transform="rotate(292.500000)"><rect stroke-width="1.000000" height="4.000000" width="70.000000" stroke="#82773f" y="-2.000000" x="0.000000" fill="#e4dfc6"/><circle stroke-width="1.000000" stroke="#82773f" cy="0.000000" cx="6.000000" r="0.100000" fill="none"/><circle stroke-width="1.000000" stroke="#82773f" cy="0.000000" cx="10.000000" r="0.100000" fill="none"/><circle stroke-width="1.000000" stroke="#82773f" cy="0.000000" cx="14.000000" r="0.100000" fill="none"/><circle stroke-width="1.000000" stroke="#82773f" cy="0.000000" cx="63.500000" r="0.100000" fill="none"/><circle stroke-width="1.000000" stroke="#82773f" cy="0.000000" cx="66.500000" r="0.100000" fill="none"/></g><g transform="rotate(337.500000)"><rect stroke-width="1.000000" height="4.000000" width="70.000000" stroke="#82773f" y="-2.000000" x="0.000000" fill="#e4dfc6"/><circle stroke-width="1.000000" stroke="#82773f" cy="0.000000" cx="6.000000" r="0.100000" fill="none"/><circle stroke-width="1.000000" stroke="#82773f" cy="0.000000" cx="10.000000" r="0.100000" fill="none"/><circle stroke-width="1.000000" stroke="#82773f" cy="0.000000" cx="14.000000" r="0.100000" fill="none"/><circle stroke-width="1.000000" stroke="#82773f" cy="0.000000" cx="63.500000" r="0.100000" fill="none"/><circle stroke-width="1.000000" stroke="#82773f" cy="0.000000" cx="66.500000" r="0.100000" fill="none"/></g><g transform="rotate(0.000000)"><line y2="0.000000" stroke-width="2.000000" x2="70.000000" stroke="#82773f" y1="0.000000" x1="14.000000" fill="none"/></g><g transform="rotate(45.000000)"><line y2="0.000000" stroke-width="2.000000" x2="70.000000" stroke="#82773f" y1="0.000000" x1="14.000000" fill="none"/></g><g transform="rotate(90.000000)"><line y2="0.000000" stroke-width="2.000000" x2="70.000000" stroke="#82773f" y1="0.000000" x1="14.000000" fill="none"/></g><g transform="rotate(135.000000)"><line y2="0.000000" stroke-width="2.000000" x2="70.000000" stroke="#82773f" y1="0.000000" x1="14.000000" fill="none"/></g><g transform="rotate(180.000000)"><line y2="0.000000" stroke-width="2.000000" x2="70.000000" stroke="#82773f" y1="0.000000" x1="14.000000" fill="none"/></g><g transform="rotate(225.000000)"><line y2="0.000000" stroke-width="2.000000" x2="70.000000" stroke="#82773f" y1="0.000000" x1="14.000000" fill="none"/></g><g transform="rotate(270.000000)"><line y2="0.000000" stroke-width="2.000000" x2="70.000000" stroke="#82773f" y1="0.000000" x1="14.000000" fill="none"/></g><g transform="rotate(315.000000)"><line y2="0.000000" stroke-width="2.000000" x2="70.000000" stroke="#82773f" y1="0.000000" x1="14.000000" fill="none"/></g><circle stroke-width="1.000000" stroke="#82773f" cy="0.000000" cx="0.000000" r="4.000000" fill="#e4dfc6"/></g></svg>
