<?xml version="1.0" encoding="UTF-8" standalone="no"?>
<!DOCTYPE svg PUBLIC "-//W3C//DTD SVG 1.1//EN"
 "http://www.w3.org/Graphics/SVG/1.1/DTD/svg11.dtd">
<!-- Generated by graphviz version 2.43.0 (0)
 -->
<!-- Title: G Pages: 1 -->
<svg width="263pt" height="152pt"
 viewBox="0.00 0.00 263.00 152.00" xmlns="http://www.w3.org/2000/svg" xmlns:xlink="http://www.w3.org/1999/xlink">
<g id="graph0" class="graph" transform="scale(1 1) rotate(0) translate(4 148)">
<title>G</title>
<polygon fill="white" stroke="transparent" points="-4,4 -4,-148 259,-148 259,4 -4,4"/>
<!-- main.c -->
<g id="node1" class="node">
<title>main.c</title>
<polygon fill="none" stroke="black" points="57,-144 0,-144 0,-108 57,-108 57,-144"/>
<text text-anchor="middle" x="28.5" y="-122.3" font-family="Helvetica,sans-Serif" font-size="14.00">main.c</text>
</g>
<!-- main.o -->
<g id="node2" class="node">
<title>main.o</title>
<polygon fill="none" stroke="black" points="151,-144 93,-144 93,-108 151,-108 151,-144"/>
<text text-anchor="middle" x="122" y="-122.3" font-family="Helvetica,sans-Serif" font-size="14.00">main.o</text>
</g>
<!-- main.c&#45;&gt;main.o -->
<g id="edge1" class="edge">
<title>main.c&#45;&gt;main.o</title>
<path fill="none" stroke="black" d="M57.45,-126C65.45,-126 74.3,-126 82.8,-126"/>
<polygon fill="black" stroke="black" points="82.91,-129.5 92.91,-126 82.91,-122.5 82.91,-129.5"/>
</g>
<!-- program -->
<g id="node3" class="node">
<title>program</title>
<polygon fill="none" stroke="black" points="255,-90 187,-90 187,-54 255,-54 255,-90"/>
<text text-anchor="middle" x="221" y="-68.3" font-family="Helvetica,sans-Serif" font-size="14.00">program</text>
</g>
<!-- main.o&#45;&gt;program -->
<g id="edge2" class="edge">
<title>main.o&#45;&gt;program</title>
<path fill="none" stroke="black" d="M151.06,-110.38C159.71,-105.57 169.42,-100.16 178.76,-94.96"/>
<polygon fill="black" stroke="black" points="180.53,-97.98 187.56,-90.06 177.12,-91.86 180.53,-97.98"/>
</g>
<!-- sort.c -->
<g id="node4" class="node">
<title>sort.c</title>
<polygon fill="none" stroke="black" points="55.5,-90 1.5,-90 1.5,-54 55.5,-54 55.5,-90"/>
<text text-anchor="middle" x="28.5" y="-68.3" font-family="Helvetica,sans-Serif" font-size="14.00">sort.c</text>
</g>
<!-- sort.o -->
<g id="node5" class="node">
<title>sort.o</title>
<polygon fill="none" stroke="black" points="149,-90 95,-90 95,-54 149,-54 149,-90"/>
<text text-anchor="middle" x="122" y="-68.3" font-family="Helvetica,sans-Serif" font-size="14.00">sort.o</text>
</g>
<!-- sort.c&#45;&gt;sort.o -->
<g id="edge3" class="edge">
<title>sort.c&#45;&gt;sort.o</title>
<path fill="none" stroke="black" d="M55.97,-72C64.96,-72 75.17,-72 84.79,-72"/>
<polygon fill="black" stroke="black" points="84.91,-75.5 94.91,-72 84.91,-68.5 84.91,-75.5"/>
</g>
<!-- sort.o&#45;&gt;program -->
<g id="edge4" class="edge">
<title>sort.o&#45;&gt;program</title>
<path fill="none" stroke="black" d="M149.25,-72C157.74,-72 167.39,-72 176.77,-72"/>
<polygon fill="black" stroke="black" points="176.78,-75.5 186.78,-72 176.78,-68.5 176.78,-75.5"/>
</g>
<!-- tree.c -->
<g id="node6" class="node">
<title>tree.c</title>
<polygon fill="none" stroke="black" points="55.5,-36 1.5,-36 1.5,0 55.5,0 55.5,-36"/>
<text text-anchor="middle" x="28.5" y="-14.3" font-family="Helvetica,sans-Serif" font-size="14.00">tree.c</text>
</g>
<!-- tree.o -->
<g id="node7" class="node">
<title>tree.o</title>
<polygon fill="none" stroke="black" points="149,-36 95,-36 95,0 149,0 149,-36"/>
<text text-anchor="middle" x="122" y="-14.3" font-family="Helvetica,sans-Serif" font-size="14.00">tree.o</text>
</g>
<!-- tree.c&#45;&gt;tree.o -->
<g id="edge5" class="edge">
<title>tree.c&#45;&gt;tree.o</title>
<path fill="none" stroke="black" d="M55.97,-18C64.96,-18 75.17,-18 84.79,-18"/>
<polygon fill="black" stroke="black" points="84.91,-21.5 94.91,-18 84.91,-14.5 84.91,-21.5"/>
</g>
<!-- tree.o&#45;&gt;program -->
<g id="edge6" class="edge">
<title>tree.o&#45;&gt;program</title>
<path fill="none" stroke="black" d="M149.25,-32.61C158.27,-37.64 168.6,-43.39 178.53,-48.92"/>
<polygon fill="black" stroke="black" points="177.05,-52.1 187.49,-53.9 180.46,-45.98 177.05,-52.1"/>
</g>
</g>
</svg>
