<?xml version="1.0" encoding="UTF-8" standalone="no"?>
<!DOCTYPE svg PUBLIC "-//W3C//DTD SVG 1.1//EN"
 "http://www.w3.org/Graphics/SVG/1.1/DTD/svg11.dtd">
<!-- Generated by graphviz version 2.43.0 (0)
 -->
<!-- Title: G Pages: 1 -->
<svg width="425pt" height="162pt"
 viewBox="0.00 0.00 425.00 161.50" xmlns="http://www.w3.org/2000/svg" xmlns:xlink="http://www.w3.org/1999/xlink">
<g id="graph0" class="graph" transform="scale(1 1) rotate(0) translate(4 157.5)">
<title>G</title>
<polygon fill="white" stroke="transparent" points="-4,4 -4,-157.5 421,-157.5 421,4 -4,4"/>
<!-- foof -->
<g id="node1" class="node">
<title>foof</title>
<polygon fill="none" stroke="black" points="116,-41 0,-41 0,0 122,0 122,-35 116,-41"/>
<polyline fill="none" stroke="black" points="116,-41 116,-35 "/>
<polyline fill="none" stroke="black" points="122,-35 116,-35 "/>
<text text-anchor="start" x="39.5" y="-29" font-family="Courier,monospace" font-size="10.00">Welcome!</text>
<text text-anchor="start" x="39.5" y="-18" font-family="Courier,monospace" font-size="10.00">&#45;&#45;&#45;&#45;&#45;&#45;&#45;&#45;</text>
<text text-anchor="start" x="8" y="-7" font-family="Courier,monospace" font-size="10.00">Read the `tutorial`.</text>
</g>
<!-- main.c -->
<g id="node2" class="node">
<title>main.c</title>
<polygon fill="none" stroke="black" points="215,-153.5 158,-153.5 158,-117.5 215,-117.5 215,-153.5"/>
<text text-anchor="middle" x="186.5" y="-131.8" font-family="Helvetica,sans-Serif" font-size="14.00">main.c</text>
</g>
<!-- main.o -->
<g id="node3" class="node">
<title>main.o</title>
<polygon fill="none" stroke="black" points="311,-153.5 253,-153.5 253,-117.5 311,-117.5 311,-153.5"/>
<text text-anchor="middle" x="282" y="-131.8" font-family="Helvetica,sans-Serif" font-size="14.00">main.o</text>
</g>
<!-- main.c&#45;&gt;main.o -->
<g id="edge1" class="edge">
<title>main.c&#45;&gt;main.o</title>
<path fill="none" stroke="black" d="M215.05,-135.5C223.66,-135.5 233.32,-135.5 242.54,-135.5"/>
<polygon fill="black" stroke="black" points="242.68,-139 252.68,-135.5 242.68,-132 242.68,-139"/>
</g>
<!-- program -->
<g id="node4" class="node">
<title>program</title>
<polygon fill="none" stroke="black" points="417,-95.5 349,-95.5 349,-59.5 417,-59.5 417,-95.5"/>
<text text-anchor="middle" x="383" y="-73.8" font-family="Helvetica,sans-Serif" font-size="14.00">program</text>
</g>
<!-- main.o&#45;&gt;program -->
<g id="edge2" class="edge">
<title>main.o&#45;&gt;program</title>
<path fill="none" stroke="black" d="M311.1,-119.03C320.74,-113.39 331.72,-106.96 342.11,-100.87"/>
<polygon fill="black" stroke="black" points="344.19,-103.71 351.04,-95.64 340.65,-97.67 344.19,-103.71"/>
</g>
<!-- edit -->
<g id="node5" class="node">
<title>edit</title>
<text text-anchor="middle" x="61" y="-73.8" font-family="Helvetica,sans-Serif" font-size="14.00">edit</text>
</g>
<!-- sort.c -->
<g id="node6" class="node">
<title>sort.c</title>
<polygon fill="none" stroke="black" points="213.5,-95.5 159.5,-95.5 159.5,-59.5 213.5,-59.5 213.5,-95.5"/>
<text text-anchor="middle" x="186.5" y="-73.8" font-family="Helvetica,sans-Serif" font-size="14.00">sort.c</text>
</g>
<!-- edit&#45;&gt;sort.c -->
<g id="edge3" class="edge">
<title>edit&#45;&gt;sort.c</title>
<path fill="none" stroke="black" d="M88.19,-77.5C105.96,-77.5 129.68,-77.5 149.25,-77.5"/>
<polygon fill="black" stroke="black" points="149.35,-81 159.35,-77.5 149.35,-74 149.35,-81"/>
</g>
<!-- sort.o -->
<g id="node7" class="node">
<title>sort.o</title>
<polygon fill="none" stroke="red" points="309,-95.5 255,-95.5 255,-59.5 309,-59.5 309,-95.5"/>
<polygon fill="none" stroke="red" points="313,-99.5 251,-99.5 251,-55.5 313,-55.5 313,-99.5"/>
<text text-anchor="middle" x="282" y="-73.8" font-family="Helvetica,sans-Serif" font-size="14.00">sort.o</text>
</g>
<!-- sort.c&#45;&gt;sort.o -->
<g id="edge4" class="edge">
<title>sort.c&#45;&gt;sort.o</title>
<path fill="none" stroke="black" d="M213.54,-77.5C221.95,-77.5 231.47,-77.5 240.65,-77.5"/>
<polygon fill="black" stroke="black" points="240.8,-81 250.8,-77.5 240.8,-74 240.8,-81"/>
</g>
<!-- sort.o&#45;&gt;program -->
<g id="edge5" class="edge">
<title>sort.o&#45;&gt;program</title>
<path fill="none" stroke="black" d="M313.24,-77.5C321.25,-77.5 330.05,-77.5 338.6,-77.5"/>
<polygon fill="black" stroke="black" points="338.84,-81 348.84,-77.5 338.84,-74 338.84,-81"/>
</g>
<!-- tree.c -->
<g id="node8" class="node">
<title>tree.c</title>
<polygon fill="none" stroke="black" points="213.5,-37.5 159.5,-37.5 159.5,-1.5 213.5,-1.5 213.5,-37.5"/>
<text text-anchor="middle" x="186.5" y="-15.8" font-family="Helvetica,sans-Serif" font-size="14.00">tree.c</text>
</g>
<!-- tree.o -->
<g id="node9" class="node">
<title>tree.o</title>
<polygon fill="none" stroke="black" points="309,-37.5 255,-37.5 255,-1.5 309,-1.5 309,-37.5"/>
<text text-anchor="middle" x="282" y="-15.8" font-family="Helvetica,sans-Serif" font-size="14.00">tree.o</text>
</g>
<!-- tree.c&#45;&gt;tree.o -->
<g id="edge6" class="edge">
<title>tree.c&#45;&gt;tree.o</title>
<path fill="none" stroke="black" d="M213.54,-19.5C223.19,-19.5 234.31,-19.5 244.7,-19.5"/>
<polygon fill="black" stroke="black" points="244.77,-23 254.77,-19.5 244.77,-16 244.77,-23"/>
</g>
<!-- tree.o&#45;&gt;program -->
<g id="edge7" class="edge">
<title>tree.o&#45;&gt;program</title>
<path fill="none" stroke="black" d="M309.01,-34.74C319.23,-40.72 331.18,-47.73 342.42,-54.31"/>
<polygon fill="black" stroke="black" points="340.84,-57.44 351.24,-59.48 344.38,-51.4 340.84,-57.44"/>
</g>
</g>
</svg>
