<?xml version="1.0" encoding="UTF-8" standalone="no"?>
<!DOCTYPE svg PUBLIC "-//W3C//DTD SVG 1.1//EN"
 "http://www.w3.org/Graphics/SVG/1.1/DTD/svg11.dtd">
<!-- Generated by graphviz version 2.43.0 (0)
 -->
<!-- Title: G Pages: 1 -->
<svg width="357pt" height="160pt"
 viewBox="0.00 0.00 357.00 160.00" xmlns="http://www.w3.org/2000/svg" xmlns:xlink="http://www.w3.org/1999/xlink">
<g id="graph0" class="graph" transform="scale(1 1) rotate(0) translate(4 156)">
<title>G</title>
<polygon fill="white" stroke="transparent" points="-4,4 -4,-156 353,-156 353,4 -4,4"/>
<!-- main.c -->
<g id="node1" class="node">
<title>main.c</title>
<polygon fill="none" stroke="black" points="147,-152 90,-152 90,-116 147,-116 147,-152"/>
<text text-anchor="middle" x="118.5" y="-130.3" font-family="Helvetica,sans-Serif" font-size="14.00">main.c</text>
</g>
<!-- main.o -->
<g id="node2" class="node">
<title>main.o</title>
<polygon fill="none" stroke="black" points="243,-152 185,-152 185,-116 243,-116 243,-152"/>
<text text-anchor="middle" x="214" y="-130.3" font-family="Helvetica,sans-Serif" font-size="14.00">main.o</text>
</g>
<!-- main.c&#45;&gt;main.o -->
<g id="edge1" class="edge">
<title>main.c&#45;&gt;main.o</title>
<path fill="none" stroke="black" d="M147.05,-134C155.66,-134 165.32,-134 174.54,-134"/>
<polygon fill="black" stroke="black" points="174.68,-137.5 184.68,-134 174.68,-130.5 174.68,-137.5"/>
</g>
<!-- program -->
<g id="node3" class="node">
<title>program</title>
<polygon fill="none" stroke="black" points="349,-94 281,-94 281,-58 349,-58 349,-94"/>
<text text-anchor="middle" x="315" y="-72.3" font-family="Helvetica,sans-Serif" font-size="14.00">program</text>
</g>
<!-- main.o&#45;&gt;program -->
<g id="edge2" class="edge">
<title>main.o&#45;&gt;program</title>
<path fill="none" stroke="black" d="M243.1,-117.53C252.74,-111.89 263.72,-105.46 274.11,-99.37"/>
<polygon fill="black" stroke="black" points="276.19,-102.21 283.04,-94.14 272.65,-96.17 276.19,-102.21"/>
</g>
<!-- edit -->
<g id="node4" class="node">
<title>edit</title>
<text text-anchor="middle" x="27" y="-72.3" font-family="Helvetica,sans-Serif" font-size="14.00">edit</text>
</g>
<!-- sort.c -->
<g id="node5" class="node">
<title>sort.c</title>
<polygon fill="none" stroke="black" points="145.5,-94 91.5,-94 91.5,-58 145.5,-58 145.5,-94"/>
<text text-anchor="middle" x="118.5" y="-72.3" font-family="Helvetica,sans-Serif" font-size="14.00">sort.c</text>
</g>
<!-- edit&#45;&gt;sort.c -->
<g id="edge3" class="edge">
<title>edit&#45;&gt;sort.c</title>
<path fill="none" stroke="black" d="M54.37,-76C62.74,-76 72.16,-76 81.11,-76"/>
<polygon fill="black" stroke="black" points="81.32,-79.5 91.32,-76 81.32,-72.5 81.32,-79.5"/>
</g>
<!-- sort.o -->
<g id="node6" class="node">
<title>sort.o</title>
<polygon fill="none" stroke="red" points="241,-94 187,-94 187,-58 241,-58 241,-94"/>
<polygon fill="none" stroke="red" points="245,-98 183,-98 183,-54 245,-54 245,-98"/>
<text text-anchor="middle" x="214" y="-72.3" font-family="Helvetica,sans-Serif" font-size="14.00">sort.o</text>
</g>
<!-- sort.c&#45;&gt;sort.o -->
<g id="edge4" class="edge">
<title>sort.c&#45;&gt;sort.o</title>
<path fill="none" stroke="black" d="M145.54,-76C153.95,-76 163.47,-76 172.65,-76"/>
<polygon fill="black" stroke="black" points="172.8,-79.5 182.8,-76 172.8,-72.5 172.8,-79.5"/>
</g>
<!-- sort.o&#45;&gt;program -->
<g id="edge5" class="edge">
<title>sort.o&#45;&gt;program</title>
<path fill="none" stroke="black" d="M245.24,-76C253.25,-76 262.05,-76 270.6,-76"/>
<polygon fill="black" stroke="black" points="270.84,-79.5 280.84,-76 270.84,-72.5 270.84,-79.5"/>
</g>
<!-- tree.c -->
<g id="node7" class="node">
<title>tree.c</title>
<polygon fill="none" stroke="black" points="145.5,-36 91.5,-36 91.5,0 145.5,0 145.5,-36"/>
<text text-anchor="middle" x="118.5" y="-14.3" font-family="Helvetica,sans-Serif" font-size="14.00">tree.c</text>
</g>
<!-- tree.o -->
<g id="node8" class="node">
<title>tree.o</title>
<polygon fill="none" stroke="black" points="241,-36 187,-36 187,0 241,0 241,-36"/>
<text text-anchor="middle" x="214" y="-14.3" font-family="Helvetica,sans-Serif" font-size="14.00">tree.o</text>
</g>
<!-- tree.c&#45;&gt;tree.o -->
<g id="edge6" class="edge">
<title>tree.c&#45;&gt;tree.o</title>
<path fill="none" stroke="black" d="M145.54,-18C155.19,-18 166.31,-18 176.7,-18"/>
<polygon fill="black" stroke="black" points="176.77,-21.5 186.77,-18 176.77,-14.5 176.77,-21.5"/>
</g>
<!-- tree.o&#45;&gt;program -->
<g id="edge7" class="edge">
<title>tree.o&#45;&gt;program</title>
<path fill="none" stroke="black" d="M241.01,-33.24C251.23,-39.22 263.18,-46.23 274.42,-52.81"/>
<polygon fill="black" stroke="black" points="272.84,-55.94 283.24,-57.98 276.38,-49.9 272.84,-55.94"/>
</g>
</g>
</svg>
