<?xml version="1.0" encoding="UTF-8" standalone="no"?>
<!DOCTYPE svg PUBLIC "-//W3C//DTD SVG 1.1//EN"
 "http://www.w3.org/Graphics/SVG/1.1/DTD/svg11.dtd">
<!-- Generated by graphviz version 2.43.0 (0)
 -->
<!-- Title: G Pages: 1 -->
<svg width="370pt" height="160pt"
 viewBox="0.00 0.00 370.00 160.00" xmlns="http://www.w3.org/2000/svg" xmlns:xlink="http://www.w3.org/1999/xlink">
<g id="graph0" class="graph" transform="scale(1 1) rotate(0) translate(4 156)">
<title>G</title>
<polygon fill="white" stroke="transparent" points="-4,4 -4,-156 366,-156 366,4 -4,4"/>
<!-- main.c -->
<g id="node1" class="node">
<title>main.c</title>
<polygon fill="none" stroke="black" points="149.5,-152 92.5,-152 92.5,-116 149.5,-116 149.5,-152"/>
<text text-anchor="middle" x="121" y="-130.3" font-family="Helvetica,sans-Serif" font-size="14.00">main.c</text>
</g>
<!-- main.o -->
<g id="node2" class="node">
<title>main.o</title>
<polygon fill="none" stroke="black" points="248,-152 190,-152 190,-116 248,-116 248,-152"/>
<text text-anchor="middle" x="219" y="-130.3" font-family="Helvetica,sans-Serif" font-size="14.00">main.o</text>
</g>
<!-- main.c&#45;&gt;main.o -->
<g id="edge1" class="edge">
<title>main.c&#45;&gt;main.o</title>
<path fill="none" stroke="black" d="M149.51,-134C158.89,-134 169.55,-134 179.62,-134"/>
<polygon fill="black" stroke="black" points="179.82,-137.5 189.82,-134 179.82,-130.5 179.82,-137.5"/>
</g>
<!-- program -->
<g id="node3" class="node">
<title>program</title>
<polygon fill="none" stroke="red" points="358,-94 290,-94 290,-58 358,-58 358,-94"/>
<polygon fill="none" stroke="red" points="362,-98 286,-98 286,-54 362,-54 362,-98"/>
<text text-anchor="middle" x="324" y="-72.3" font-family="Helvetica,sans-Serif" font-size="14.00">program</text>
</g>
<!-- main.o&#45;&gt;program -->
<g id="edge2" class="edge">
<title>main.o&#45;&gt;program</title>
<path fill="none" stroke="black" d="M248.15,-118.15C257.08,-113.12 267.21,-107.41 277.07,-101.87"/>
<polygon fill="black" stroke="black" points="279,-104.79 286,-96.84 275.57,-98.69 279,-104.79"/>
</g>
<!-- edit -->
<g id="node4" class="node">
<title>edit</title>
<text text-anchor="middle" x="27" y="-72.3" font-family="Helvetica,sans-Serif" font-size="14.00" fill="blue">edit</text>
</g>
<!-- sort.c -->
<g id="node5" class="node">
<title>sort.c</title>
<polygon fill="none" stroke="blue" points="148,-94 94,-94 94,-58 148,-58 148,-94"/>
<polygon fill="none" stroke="blue" points="152,-98 90,-98 90,-54 152,-54 152,-98"/>
<text text-anchor="middle" x="121" y="-72.3" font-family="Helvetica,sans-Serif" font-size="14.00">sort.c</text>
</g>
<!-- edit&#45;&gt;sort.c -->
<g id="edge3" class="edge">
<title>edit&#45;&gt;sort.c</title>
<path fill="none" stroke="black" d="M54.12,-76C62.14,-76 71.15,-76 79.88,-76"/>
<polygon fill="black" stroke="black" points="79.92,-79.5 89.92,-76 79.92,-72.5 79.92,-79.5"/>
</g>
<!-- sort.o -->
<g id="node6" class="node">
<title>sort.o</title>
<polygon fill="none" stroke="red" points="246,-94 192,-94 192,-58 246,-58 246,-94"/>
<polygon fill="none" stroke="red" points="250,-98 188,-98 188,-54 250,-54 250,-98"/>
<text text-anchor="middle" x="219" y="-72.3" font-family="Helvetica,sans-Serif" font-size="14.00">sort.o</text>
</g>
<!-- sort.c&#45;&gt;sort.o -->
<g id="edge4" class="edge">
<title>sort.c&#45;&gt;sort.o</title>
<path fill="none" stroke="black" d="M152.11,-76C160.24,-76 169.17,-76 177.76,-76"/>
<polygon fill="black" stroke="black" points="178,-79.5 188,-76 178,-72.5 178,-79.5"/>
</g>
<!-- sort.o&#45;&gt;program -->
<g id="edge5" class="edge">
<title>sort.o&#45;&gt;program</title>
<path fill="none" stroke="black" d="M250.07,-76C258.09,-76 266.96,-76 275.67,-76"/>
<polygon fill="black" stroke="black" points="275.76,-79.5 285.76,-76 275.76,-72.5 275.76,-79.5"/>
</g>
<!-- tree.c -->
<g id="node7" class="node">
<title>tree.c</title>
<polygon fill="none" stroke="black" points="148,-36 94,-36 94,0 148,0 148,-36"/>
<text text-anchor="middle" x="121" y="-14.3" font-family="Helvetica,sans-Serif" font-size="14.00">tree.c</text>
</g>
<!-- tree.o -->
<g id="node8" class="node">
<title>tree.o</title>
<polygon fill="none" stroke="black" points="246,-36 192,-36 192,0 246,0 246,-36"/>
<text text-anchor="middle" x="219" y="-14.3" font-family="Helvetica,sans-Serif" font-size="14.00">tree.o</text>
</g>
<!-- tree.c&#45;&gt;tree.o -->
<g id="edge6" class="edge">
<title>tree.c&#45;&gt;tree.o</title>
<path fill="none" stroke="black" d="M148.23,-18C158.5,-18 170.45,-18 181.53,-18"/>
<polygon fill="black" stroke="black" points="181.8,-21.5 191.8,-18 181.8,-14.5 181.8,-21.5"/>
</g>
<!-- tree.o&#45;&gt;program -->
<g id="edge7" class="edge">
<title>tree.o&#45;&gt;program</title>
<path fill="none" stroke="black" d="M246.26,-32.79C255.66,-38.08 266.56,-44.22 277.14,-50.18"/>
<polygon fill="black" stroke="black" points="275.48,-53.26 285.91,-55.11 278.91,-47.16 275.48,-53.26"/>
</g>
</g>
</svg>
