<?xml version="1.0" encoding="UTF-8" standalone="no"?>
<!-- Created with Inkscape (http://www.inkscape.org/) -->
<svg
   xmlns:dc="http://purl.org/dc/elements/1.1/"
   xmlns:cc="http://web.resource.org/cc/"
   xmlns:rdf="http://www.w3.org/1999/02/22-rdf-syntax-ns#"
   xmlns:svg="http://www.w3.org/2000/svg"
   xmlns="http://www.w3.org/2000/svg"
   xmlns:sodipodi="http://sodipodi.sourceforge.net/DTD/sodipodi-0.dtd"
   xmlns:inkscape="http://www.inkscape.org/namespaces/inkscape"
   version="1.0"
   width="300"
   height="200"
   id="svg4673">
  <metadata
     id="metadata2262">
    <rdf:RDF>
      <cc:Work
         rdf:about="">
        <dc:format>image/svg+xml</dc:format>
        <dc:type
           rdf:resource="http://purl.org/dc/dcmitype/StillImage" />
      </cc:Work>
    </rdf:RDF>
  </metadata>
  <sodipodi:namedview
     inkscape:window-height="968"
     inkscape:window-width="1280"
     inkscape:pageshadow="2"
     inkscape:pageopacity="0.0"
     guidetolerance="10.0"
     gridtolerance="10.0"
     objecttolerance="10.0"
     borderopacity="1.0"
     bordercolor="#666666"
     pagecolor="#ffffff"
     id="base"
     width="300px"
     height="200px"
     showguides="true"
     inkscape:guide-bbox="true"
     inkscape:zoom="2"
     inkscape:cx="146.93138"
     inkscape:cy="134.135"
     inkscape:window-x="-4"
     inkscape:window-y="-4"
     inkscape:current-layer="svg4673" />
  <defs
     id="defs4675">
    <marker
       style="overflow:visible"
       id="TriangleOutL"
       refX="0"
       refY="0"
       orient="auto"
       inkscape:stockid="TriangleOutL">
      <path
         transform="scale(0.8,0.8)"
         style="fill-rule:evenodd;stroke:#000000;stroke-width:1pt;marker-start:none"
         d="M 5.77,0 L -2.88,5 L -2.88,-5 L 5.77,0 z "
         id="path4390" />
    </marker>
    <marker
       style="overflow:visible"
       id="Scissors"
       refX="0"
       refY="0"
       orient="auto"
       inkscape:stockid="Scissors">
      <path
         d="M 9.0898857,-3.6061018 C 8.1198849,-4.7769976 6.3697607,-4.7358294 5.0623558,-4.2327734 L -3.1500488,-1.1548705 C -5.5383421,-2.461584 -7.8983361,-2.0874077 -7.8983361,-2.7236578 C -7.8983361,-3.2209742 -7.4416699,-3.11198 -7.5100293,-4.4068519 C -7.5756648,-5.6501286 -8.8736064,-6.5699315 -10.100428,-6.4884954 C -11.327699,-6.49585 -12.599867,-5.5553341 -12.610769,-4.2584343 C -12.702194,-2.9520479 -11.60356,-1.7387447 -10.304005,-1.6532027 C -8.7816644,-1.4265411 -6.085747,-2.3487593 -4.82106,-0.082342643 C -5.7633447,1.6559151 -7.4350844,1.6607341 -8.9465707,1.5737277 C -10.201445,1.5014928 -11.708664,1.8611256 -12.307219,3.0945882 C -12.885586,4.2766744 -12.318421,5.9591904 -10.99047,6.3210002 C -9.6502788,6.8128279 -7.8098011,6.1912892 -7.4910978,4.650276 C -7.2454393,3.462453 -8.0864637,2.9043186 -7.7636052,2.4731223 C -7.5199917,2.1477623 -5.9728246,2.3362771 -3.2164999,1.0982979 L 5.6763468,4.2330688 C 6.8000164,4.5467672 8.1730685,4.5362646 9.1684433,3.4313614 L -0.05164093,-0.053722219 L 9.0898857,-3.6061018 z M -9.2179159,-5.5066058 C -7.9233569,-4.783806 -8.0290767,-2.8230356 -9.3743431,-2.4433169 C -10.590861,-2.0196559 -12.14537,-3.2022863 -11.757521,-4.5207817 C -11.530373,-5.6026336 -10.104134,-6.0014137 -9.2179159,-5.5066058 z M -9.1616516,2.5107591 C -7.8108215,3.0096239 -8.0402087,5.2951947 -9.4138723,5.6023681 C -10.324932,5.9187072 -11.627422,5.4635705 -11.719569,4.3902287 C -11.897178,3.0851737 -10.363484,1.9060805 -9.1616516,2.5107591 z "
         style="marker-start:none"
         id="schere" />
    </marker>
    <marker
       style="overflow:visible"
       id="Tail"
       refX="0"
       refY="0"
       orient="auto"
       inkscape:stockid="Tail">
      <g
         transform="scale(-1.2,-1.2)"
         id="g4440">
        <path
           style="fill:none;fill-rule:evenodd;stroke:#000000;stroke-width:0.80000001;stroke-linecap:round;marker-start:none;marker-end:none"
           d="M -3.8048674,-3.9585227 L 0.54352094,0"
           id="path4442" />
        <path
           style="fill:none;fill-rule:evenodd;stroke:#000000;stroke-width:0.80000001;stroke-linecap:round;marker-start:none;marker-end:none"
           d="M -1.2866832,-3.9585227 L 3.0617053,0"
           id="path4444" />
        <path
           style="fill:none;fill-rule:evenodd;stroke:#000000;stroke-width:0.80000001;stroke-linecap:round;marker-start:none;marker-end:none"
           d="M 1.3053582,-3.9585227 L 5.6537466,0"
           id="path4446" />
        <path
           style="fill:none;fill-rule:evenodd;stroke:#000000;stroke-width:0.80000001;stroke-linecap:round;marker-start:none;marker-end:none"
           d="M -3.8048674,4.1775838 L 0.54352094,0.21974226"
           id="path4448" />
        <path
           style="fill:none;fill-rule:evenodd;stroke:#000000;stroke-width:0.80000001;stroke-linecap:round;marker-start:none;marker-end:none"
           d="M -1.2866832,4.1775838 L 3.0617053,0.21974226"
           id="path4450" />
        <path
           style="fill:none;fill-rule:evenodd;stroke:#000000;stroke-width:0.80000001;stroke-linecap:round;marker-start:none;marker-end:none"
           d="M 1.3053582,4.1775838 L 5.6537466,0.21974226"
           id="path4452" />
      </g>
    </marker>
    <marker
       style="overflow:visible"
       id="Arrow2Lend"
       refX="0"
       refY="0"
       orient="auto"
       inkscape:stockid="Arrow2Lend">
      <path
         transform="matrix(-1.1,0,0,-1.1,-1.1,0)"
         d="M 8.7185878,4.0337352 L -2.2072895,0.016013256 L 8.7185884,-4.0017078 C 6.97309,-1.6296469 6.9831476,1.6157441 8.7185878,4.0337352 z "
         style="font-size:12px;fill-rule:evenodd;stroke-width:0.625;stroke-linejoin:round"
         id="path4467" />
    </marker>
    <marker
       style="overflow:visible"
       id="Arrow1Lend"
       refX="0"
       refY="0"
       orient="auto"
       inkscape:stockid="Arrow1Lend">
      <path
         transform="matrix(-0.8,0,0,-0.8,-10,0)"
         style="fill-rule:evenodd;stroke:#000000;stroke-width:1pt;marker-start:none"
         d="M 0,0 L 5,-5 L -12.5,0 L 5,5 L 0,0 z "
         id="path4485" />
    </marker>
    <marker
       style="overflow:visible"
       id="TriangleOutM"
       refX="0"
       refY="0"
       orient="auto"
       inkscape:stockid="TriangleOutM">
      <path
         transform="scale(0.4,0.4)"
         style="fill-rule:evenodd;stroke:#000000;stroke-width:1pt;marker-start:none"
         d="M 5.77,0 L -2.88,5 L -2.88,-5 L 5.77,0 z "
         id="path4387" />
    </marker>
    <marker
       style="overflow:visible"
       id="Arrow2Mend"
       refX="0"
       refY="0"
       orient="auto"
       inkscape:stockid="Arrow2Mend">
      <path
         transform="scale(-0.6,-0.6)"
         d="M 8.7185878,4.0337352 L -2.2072895,0.016013256 L 8.7185884,-4.0017078 C 6.97309,-1.6296469 6.9831476,1.6157441 8.7185878,4.0337352 z "
         style="font-size:12px;fill-rule:evenodd;stroke-width:0.625;stroke-linejoin:round"
         id="path4461" />
    </marker>
    <marker
       style="overflow:visible"
       id="Arrow1Mend"
       refX="0"
       refY="0"
       orient="auto"
       inkscape:stockid="Arrow1Mend">
      <path
         transform="matrix(-0.4,0,0,-0.4,-4,0)"
         style="fill-rule:evenodd;stroke:#000000;stroke-width:1pt;marker-start:none"
         d="M 0,0 L 5,-5 L -12.5,0 L 5,5 L 0,0 z "
         id="path4479" />
    </marker>
    <marker
       style="overflow:visible"
       id="Arrow1Send"
       refX="0"
       refY="0"
       orient="auto"
       inkscape:stockid="Arrow1Send">
      <path
         transform="matrix(-0.2,0,0,-0.2,-1.2,0)"
         style="fill-rule:evenodd;stroke:#000000;stroke-width:1pt;marker-start:none"
         d="M 0,0 L 5,-5 L -12.5,0 L 5,5 L 0,0 z "
         id="path4473" />
    </marker>
    <marker
       style="overflow:visible"
       id="Arrow2Mstart"
       refX="0"
       refY="0"
       orient="auto"
       inkscape:stockid="Arrow2Mstart">
      <path
         transform="scale(0.6,0.6)"
         d="M 8.7185878,4.0337352 L -2.2072895,0.016013256 L 8.7185884,-4.0017078 C 6.97309,-1.6296469 6.9831476,1.6157441 8.7185878,4.0337352 z "
         style="font-size:12px;fill-rule:evenodd;stroke-width:0.625;stroke-linejoin:round"
         id="path4464" />
    </marker>
    <marker
       style="overflow:visible"
       id="marker3980"
       refX="0"
       refY="0"
       orient="auto"
       inkscape:stockid="TriangleOutL">
      <path
         transform="scale(0.8,0.8)"
         style="fill-rule:evenodd;stroke:#000000;stroke-width:1pt;marker-start:none"
         d="M 5.77,0 L -2.88,5 L -2.88,-5 L 5.77,0 z "
         id="path3982" />
    </marker>
    <marker
       style="overflow:visible"
       id="marker3976"
       refX="0"
       refY="0"
       orient="auto"
       inkscape:stockid="Scissors">
      <path
         d="M 9.0898857,-3.6061018 C 8.1198849,-4.7769976 6.3697607,-4.7358294 5.0623558,-4.2327734 L -3.1500488,-1.1548705 C -5.5383421,-2.461584 -7.8983361,-2.0874077 -7.8983361,-2.7236578 C -7.8983361,-3.2209742 -7.4416699,-3.11198 -7.5100293,-4.4068519 C -7.5756648,-5.6501286 -8.8736064,-6.5699315 -10.100428,-6.4884954 C -11.327699,-6.49585 -12.599867,-5.5553341 -12.610769,-4.2584343 C -12.702194,-2.9520479 -11.60356,-1.7387447 -10.304005,-1.6532027 C -8.7816644,-1.4265411 -6.085747,-2.3487593 -4.82106,-0.082342643 C -5.7633447,1.6559151 -7.4350844,1.6607341 -8.9465707,1.5737277 C -10.201445,1.5014928 -11.708664,1.8611256 -12.307219,3.0945882 C -12.885586,4.2766744 -12.318421,5.9591904 -10.99047,6.3210002 C -9.6502788,6.8128279 -7.8098011,6.1912892 -7.4910978,4.650276 C -7.2454393,3.462453 -8.0864637,2.9043186 -7.7636052,2.4731223 C -7.5199917,2.1477623 -5.9728246,2.3362771 -3.2164999,1.0982979 L 5.6763468,4.2330688 C 6.8000164,4.5467672 8.1730685,4.5362646 9.1684433,3.4313614 L -0.05164093,-0.053722219 L 9.0898857,-3.6061018 z M -9.2179159,-5.5066058 C -7.9233569,-4.783806 -8.0290767,-2.8230356 -9.3743431,-2.4433169 C -10.590861,-2.0196559 -12.14537,-3.2022863 -11.757521,-4.5207817 C -11.530373,-5.6026336 -10.104134,-6.0014137 -9.2179159,-5.5066058 z M -9.1616516,2.5107591 C -7.8108215,3.0096239 -8.0402087,5.2951947 -9.4138723,5.6023681 C -10.324932,5.9187072 -11.627422,5.4635705 -11.719569,4.3902287 C -11.897178,3.0851737 -10.363484,1.9060805 -9.1616516,2.5107591 z "
         style="marker-start:none"
         id="path3978" />
    </marker>
    <marker
       style="overflow:visible"
       id="marker3960"
       refX="0"
       refY="0"
       orient="auto"
       inkscape:stockid="Tail">
      <g
         transform="scale(-1.2,-1.2)"
         id="g3962">
        <path
           style="fill:none;fill-rule:evenodd;stroke:#000000;stroke-width:0.80000001;stroke-linecap:round;marker-start:none;marker-end:none"
           d="M -3.8048674,-3.9585227 L 0.54352094,0"
           id="path3964" />
        <path
           style="fill:none;fill-rule:evenodd;stroke:#000000;stroke-width:0.80000001;stroke-linecap:round;marker-start:none;marker-end:none"
           d="M -1.2866832,-3.9585227 L 3.0617053,0"
           id="path3966" />
        <path
           style="fill:none;fill-rule:evenodd;stroke:#000000;stroke-width:0.80000001;stroke-linecap:round;marker-start:none;marker-end:none"
           d="M 1.3053582,-3.9585227 L 5.6537466,0"
           id="path3968" />
        <path
           style="fill:none;fill-rule:evenodd;stroke:#000000;stroke-width:0.80000001;stroke-linecap:round;marker-start:none;marker-end:none"
           d="M -3.8048674,4.1775838 L 0.54352094,0.21974226"
           id="path3970" />
        <path
           style="fill:none;fill-rule:evenodd;stroke:#000000;stroke-width:0.80000001;stroke-linecap:round;marker-start:none;marker-end:none"
           d="M -1.2866832,4.1775838 L 3.0617053,0.21974226"
           id="path3972" />
        <path
           style="fill:none;fill-rule:evenodd;stroke:#000000;stroke-width:0.80000001;stroke-linecap:round;marker-start:none;marker-end:none"
           d="M 1.3053582,4.1775838 L 5.6537466,0.21974226"
           id="path3974" />
      </g>
    </marker>
    <marker
       style="overflow:visible"
       id="marker3956"
       refX="0"
       refY="0"
       orient="auto"
       inkscape:stockid="Arrow2Lend">
      <path
         transform="matrix(-1.1,0,0,-1.1,-1.1,0)"
         d="M 8.7185878,4.0337352 L -2.2072895,0.016013256 L 8.7185884,-4.0017078 C 6.97309,-1.6296469 6.9831476,1.6157441 8.7185878,4.0337352 z "
         style="font-size:12px;fill-rule:evenodd;stroke-width:0.625;stroke-linejoin:round"
         id="path3958" />
    </marker>
    <marker
       style="overflow:visible"
       id="marker3952"
       refX="0"
       refY="0"
       orient="auto"
       inkscape:stockid="Arrow1Lend">
      <path
         transform="matrix(-0.8,0,0,-0.8,-10,0)"
         style="fill-rule:evenodd;stroke:#000000;stroke-width:1pt;marker-start:none"
         d="M 0,0 L 5,-5 L -12.5,0 L 5,5 L 0,0 z "
         id="path3954" />
    </marker>
    <marker
       style="overflow:visible"
       id="marker3948"
       refX="0"
       refY="0"
       orient="auto"
       inkscape:stockid="TriangleOutM">
      <path
         transform="scale(0.4,0.4)"
         style="fill-rule:evenodd;stroke:#000000;stroke-width:1pt;marker-start:none"
         d="M 5.77,0 L -2.88,5 L -2.88,-5 L 5.77,0 z "
         id="path3950" />
    </marker>
    <marker
       style="overflow:visible"
       id="marker3944"
       refX="0"
       refY="0"
       orient="auto"
       inkscape:stockid="Arrow2Mend">
      <path
         transform="scale(-0.6,-0.6)"
         d="M 8.7185878,4.0337352 L -2.2072895,0.016013256 L 8.7185884,-4.0017078 C 6.97309,-1.6296469 6.9831476,1.6157441 8.7185878,4.0337352 z "
         style="font-size:12px;fill-rule:evenodd;stroke-width:0.625;stroke-linejoin:round"
         id="path3946" />
    </marker>
    <marker
       style="overflow:visible"
       id="marker3940"
       refX="0"
       refY="0"
       orient="auto"
       inkscape:stockid="Arrow1Mend">
      <path
         transform="matrix(-0.4,0,0,-0.4,-4,0)"
         style="fill-rule:evenodd;stroke:#000000;stroke-width:1pt;marker-start:none"
         d="M 0,0 L 5,-5 L -12.5,0 L 5,5 L 0,0 z "
         id="path3942" />
    </marker>
    <marker
       style="overflow:visible"
       id="marker3936"
       refX="0"
       refY="0"
       orient="auto"
       inkscape:stockid="Arrow1Send">
      <path
         transform="matrix(-0.2,0,0,-0.2,-1.2,0)"
         style="fill-rule:evenodd;stroke:#000000;stroke-width:1pt;marker-start:none"
         d="M 0,0 L 5,-5 L -12.5,0 L 5,5 L 0,0 z "
         id="path3938" />
    </marker>
    <marker
       style="overflow:visible"
       id="marker3932"
       refX="0"
       refY="0"
       orient="auto"
       inkscape:stockid="Arrow2Mstart">
      <path
         transform="scale(0.6,0.6)"
         d="M 8.7185878,4.0337352 L -2.2072895,0.016013256 L 8.7185884,-4.0017078 C 6.97309,-1.6296469 6.9831476,1.6157441 8.7185878,4.0337352 z "
         style="font-size:12px;fill-rule:evenodd;stroke-width:0.625;stroke-linejoin:round"
         id="path3934" />
    </marker>
    <marker
       style="overflow:visible"
       id="marker4553"
       refX="0"
       refY="0"
       orient="auto"
       inkscape:stockid="TriangleOutL">
      <path
         transform="scale(0.8,0.8)"
         style="fill-rule:evenodd;stroke:#000000;stroke-width:1pt;marker-start:none"
         d="M 5.77,0 L -2.88,5 L -2.88,-5 L 5.77,0 z "
         id="path4555" />
    </marker>
    <marker
       style="overflow:visible"
       id="marker4549"
       refX="0"
       refY="0"
       orient="auto"
       inkscape:stockid="Scissors">
      <path
         d="M 9.0898857,-3.6061018 C 8.1198849,-4.7769976 6.3697607,-4.7358294 5.0623558,-4.2327734 L -3.1500488,-1.1548705 C -5.5383421,-2.461584 -7.8983361,-2.0874077 -7.8983361,-2.7236578 C -7.8983361,-3.2209742 -7.4416699,-3.11198 -7.5100293,-4.4068519 C -7.5756648,-5.6501286 -8.8736064,-6.5699315 -10.100428,-6.4884954 C -11.327699,-6.49585 -12.599867,-5.5553341 -12.610769,-4.2584343 C -12.702194,-2.9520479 -11.60356,-1.7387447 -10.304005,-1.6532027 C -8.7816644,-1.4265411 -6.085747,-2.3487593 -4.82106,-0.082342643 C -5.7633447,1.6559151 -7.4350844,1.6607341 -8.9465707,1.5737277 C -10.201445,1.5014928 -11.708664,1.8611256 -12.307219,3.0945882 C -12.885586,4.2766744 -12.318421,5.9591904 -10.99047,6.3210002 C -9.6502788,6.8128279 -7.8098011,6.1912892 -7.4910978,4.650276 C -7.2454393,3.462453 -8.0864637,2.9043186 -7.7636052,2.4731223 C -7.5199917,2.1477623 -5.9728246,2.3362771 -3.2164999,1.0982979 L 5.6763468,4.2330688 C 6.8000164,4.5467672 8.1730685,4.5362646 9.1684433,3.4313614 L -0.05164093,-0.053722219 L 9.0898857,-3.6061018 z M -9.2179159,-5.5066058 C -7.9233569,-4.783806 -8.0290767,-2.8230356 -9.3743431,-2.4433169 C -10.590861,-2.0196559 -12.14537,-3.2022863 -11.757521,-4.5207817 C -11.530373,-5.6026336 -10.104134,-6.0014137 -9.2179159,-5.5066058 z M -9.1616516,2.5107591 C -7.8108215,3.0096239 -8.0402087,5.2951947 -9.4138723,5.6023681 C -10.324932,5.9187072 -11.627422,5.4635705 -11.719569,4.3902287 C -11.897178,3.0851737 -10.363484,1.9060805 -9.1616516,2.5107591 z "
         style="marker-start:none"
         id="path4551" />
    </marker>
    <marker
       style="overflow:visible"
       id="marker4533"
       refX="0"
       refY="0"
       orient="auto"
       inkscape:stockid="Tail">
      <g
         transform="scale(-1.2,-1.2)"
         id="g4535">
        <path
           style="fill:none;fill-rule:evenodd;stroke:#000000;stroke-width:0.80000001;stroke-linecap:round;marker-start:none;marker-end:none"
           d="M -3.8048674,-3.9585227 L 0.54352094,0"
           id="path4537" />
        <path
           style="fill:none;fill-rule:evenodd;stroke:#000000;stroke-width:0.80000001;stroke-linecap:round;marker-start:none;marker-end:none"
           d="M -1.2866832,-3.9585227 L 3.0617053,0"
           id="path4539" />
        <path
           style="fill:none;fill-rule:evenodd;stroke:#000000;stroke-width:0.80000001;stroke-linecap:round;marker-start:none;marker-end:none"
           d="M 1.3053582,-3.9585227 L 5.6537466,0"
           id="path4541" />
        <path
           style="fill:none;fill-rule:evenodd;stroke:#000000;stroke-width:0.80000001;stroke-linecap:round;marker-start:none;marker-end:none"
           d="M -3.8048674,4.1775838 L 0.54352094,0.21974226"
           id="path4543" />
        <path
           style="fill:none;fill-rule:evenodd;stroke:#000000;stroke-width:0.80000001;stroke-linecap:round;marker-start:none;marker-end:none"
           d="M -1.2866832,4.1775838 L 3.0617053,0.21974226"
           id="path4545" />
        <path
           style="fill:none;fill-rule:evenodd;stroke:#000000;stroke-width:0.80000001;stroke-linecap:round;marker-start:none;marker-end:none"
           d="M 1.3053582,4.1775838 L 5.6537466,0.21974226"
           id="path4547" />
      </g>
    </marker>
    <marker
       style="overflow:visible"
       id="marker4529"
       refX="0"
       refY="0"
       orient="auto"
       inkscape:stockid="Arrow2Lend">
      <path
         transform="matrix(-1.1,0,0,-1.1,-1.1,0)"
         d="M 8.7185878,4.0337352 L -2.2072895,0.016013256 L 8.7185884,-4.0017078 C 6.97309,-1.6296469 6.9831476,1.6157441 8.7185878,4.0337352 z "
         style="font-size:12px;fill-rule:evenodd;stroke-width:0.625;stroke-linejoin:round"
         id="path4531" />
    </marker>
    <marker
       style="overflow:visible"
       id="marker4525"
       refX="0"
       refY="0"
       orient="auto"
       inkscape:stockid="Arrow1Lend">
      <path
         transform="matrix(-0.8,0,0,-0.8,-10,0)"
         style="fill-rule:evenodd;stroke:#000000;stroke-width:1pt;marker-start:none"
         d="M 0,0 L 5,-5 L -12.5,0 L 5,5 L 0,0 z "
         id="path4527" />
    </marker>
    <marker
       style="overflow:visible"
       id="marker4521"
       refX="0"
       refY="0"
       orient="auto"
       inkscape:stockid="TriangleOutM">
      <path
         transform="scale(0.4,0.4)"
         style="fill-rule:evenodd;stroke:#000000;stroke-width:1pt;marker-start:none"
         d="M 5.77,0 L -2.88,5 L -2.88,-5 L 5.77,0 z "
         id="path4523" />
    </marker>
    <marker
       style="overflow:visible"
       id="marker4517"
       refX="0"
       refY="0"
       orient="auto"
       inkscape:stockid="Arrow2Mend">
      <path
         transform="scale(-0.6,-0.6)"
         d="M 8.7185878,4.0337352 L -2.2072895,0.016013256 L 8.7185884,-4.0017078 C 6.97309,-1.6296469 6.9831476,1.6157441 8.7185878,4.0337352 z "
         style="font-size:12px;fill-rule:evenodd;stroke-width:0.625;stroke-linejoin:round"
         id="path4519" />
    </marker>
    <marker
       style="overflow:visible"
       id="marker4513"
       refX="0"
       refY="0"
       orient="auto"
       inkscape:stockid="Arrow1Mend">
      <path
         transform="matrix(-0.4,0,0,-0.4,-4,0)"
         style="fill-rule:evenodd;stroke:#000000;stroke-width:1pt;marker-start:none"
         d="M 0,0 L 5,-5 L -12.5,0 L 5,5 L 0,0 z "
         id="path4515" />
    </marker>
    <marker
       style="overflow:visible"
       id="marker4509"
       refX="0"
       refY="0"
       orient="auto"
       inkscape:stockid="Arrow1Send">
      <path
         transform="matrix(-0.2,0,0,-0.2,-1.2,0)"
         style="fill-rule:evenodd;stroke:#000000;stroke-width:1pt;marker-start:none"
         d="M 0,0 L 5,-5 L -12.5,0 L 5,5 L 0,0 z "
         id="path4511" />
    </marker>
    <marker
       style="overflow:visible"
       id="marker4505"
       refX="0"
       refY="0"
       orient="auto"
       inkscape:stockid="Arrow2Mstart">
      <path
         transform="scale(0.6,0.6)"
         d="M 8.7185878,4.0337352 L -2.2072895,0.016013256 L 8.7185884,-4.0017078 C 6.97309,-1.6296469 6.9831476,1.6157441 8.7185878,4.0337352 z "
         style="font-size:12px;fill-rule:evenodd;stroke-width:0.625;stroke-linejoin:round"
         id="path4507" />
    </marker>
  </defs>
  <path
     id="path4708"
     style="fill:none;fill-rule:evenodd;stroke:#0000ff;stroke-width:2.01100349;stroke-linecap:butt;stroke-linejoin:miter;stroke-miterlimit:4;stroke-dasharray:none;stroke-opacity:1"
     d="M 87.863199,89.376931 C 91.483788,83.53361 94.043038,70.134058 98.72497,71.846971 C 103.4069,73.55989 110.14613,99.75995 115.95479,99.6544 C 121.76346,99.54884 127.71315,71.230117 133.57701,71.213653 C 139.44087,71.197183 145.2954,99.53772 151.13798,99.55558 C 156.98057,99.57343 162.85107,71.401544 168.63257,71.320797 C 174.41408,71.240048 180.15906,98.96846 185.82696,99.07104 C 191.49484,99.17362 197.99559,73.485613 202.63995,71.936288 C 207.28431,70.386967 210.00872,83.828831 213.69311,89.775104" />
  <path
     id="path6566"
     style="fill:none;fill-rule:evenodd;stroke:#00bc00;stroke-width:2;stroke-linecap:butt;stroke-linejoin:miter;stroke-miterlimit:4;stroke-dasharray:none;stroke-opacity:1"
     d="M 239.71806,64.05408 C 244.56007,65.925513 245.56758,77.8766 245.1565,81.135442 C 244.74542,84.394285 238.0636,85.58686 235.81613,84.296916 C 233.56868,83.00695 231.96937,75.841076 235.21415,74.26396 C 238.45893,72.686852 251.09971,72.108012 255.28483,74.834237 C 259.46997,77.560459 260.71941,87.659753 259.75451,90.689819 C 258.7896,93.719884 251.04226,94.189736 249.49543,93.014638 C 247.94858,91.839553 246.23439,86.741443 249.14212,83.948915 C 252.08357,81.123968 266.29411,81.202261 270.03936,83.846514 C 273.78457,86.49076 274.24061,97.299824 273.04766,100.24815 C 271.85468,103.19648 265.57839,103.78849 263.91739,102.67845 C 262.25641,101.56843 259.59873,95.92427 262.30393,93.517948 C 264.997,91.122387 277.73154,88.612105 280.36585,91.797047" />
  <path
     id="path4681"
     style="fill:none;fill-rule:evenodd;stroke:#000000;stroke-width:2;stroke-linecap:butt;stroke-linejoin:miter;stroke-miterlimit:4;stroke-dasharray:none;stroke-opacity:1"
     d="M 13.721805,14.273133 L 88.334568,88.885896 L 13.818665,162.05136"
     sodipodi:nodetypes="ccc" />
  <path
     id="path4683"
     style="fill:none;fill-rule:evenodd;stroke:#000000;stroke-width:2;stroke-linecap:butt;stroke-linejoin:miter;stroke-miterlimit:4;stroke-dasharray:none;stroke-opacity:1"
     d="M 287.96562,15.09721 L 213.35285,89.259826 L 287.41861,161.52499"
     sodipodi:nodetypes="ccc" />
  <g
     id="g4117"
     transform="translate(1.9002951,2.4516231)">
    <text
       xml:space="preserve"
       id="text4738"
       style="font-size:14px;font-style:normal;font-weight:normal;text-align:center;text-anchor:middle;fill:#000000;fill-opacity:1;stroke:none;stroke-width:1px;stroke-linecap:butt;stroke-linejoin:miter;stroke-opacity:1;font-family:Arial"
       y="145.48778"
       x="50.830383">e</text>
    <text
       xml:space="preserve"
       id="text4742"
       style="font-size:8px;font-style:normal;font-weight:normal;text-align:center;text-anchor:middle;fill:#000000;fill-opacity:1;stroke:none;stroke-width:1px;stroke-linecap:butt;stroke-linejoin:miter;stroke-opacity:1;font-family:Arial"
       y="140.21896"
       x="57.634933">+</text>
  </g>
  <text
     x="253.44453"
     y="32.89032"
     style="font-size:14px;font-style:normal;font-weight:normal;text-align:center;text-anchor:middle;fill:#000000;fill-opacity:1;stroke:none;stroke-width:1px;stroke-linecap:butt;stroke-linejoin:miter;stroke-opacity:1;font-family:Arial"
     id="text4746"
     xml:space="preserve">q</text>
  <text
     xml:space="preserve"
     id="text4754"
     style="font-size:14px;font-style:normal;font-weight:normal;text-align:center;text-anchor:middle;fill:#000000;fill-opacity:1;stroke:none;stroke-width:1px;stroke-linecap:butt;stroke-linejoin:miter;stroke-opacity:1;font-family:Arial"
     y="151.53406"
     x="251.94569">q</text>
  <text
     xml:space="preserve"
     id="text5665"
     style="font-size:14px;font-style:normal;font-weight:normal;text-align:center;text-anchor:middle;fill:#000000;fill-opacity:1;stroke:none;stroke-width:1px;stroke-linecap:butt;stroke-linejoin:miter;stroke-opacity:1;font-family:Arial"
     y="74.758896"
     x="277.57364">g</text>
  <text
     xml:space="preserve"
     style="font-size:16px;font-style:normal;font-weight:normal;fill:#000000;fill-opacity:1;stroke:none;stroke-width:1px;stroke-linecap:butt;stroke-linejoin:miter;stroke-opacity:1;font-family:Times New Roman"
     x="147.31331"
     y="65.425087"
     id="text3318">γ</text>
  <g
     id="g4745"
     transform="matrix(-0.847233,-0.5312214,0.5312214,-0.847233,175.64068,332.42463)"
     inkscape:transform-center-y="-5.6947134"
     inkscape:transform-center-x="-6.9034624">
    <path
       d="M 209.72711,110.36918 L 217.42545,98.712428 L 219.11289,112.57954 C 216.82235,109.88822 213.02882,109.00724 209.72711,110.36918 z "
       style="font-size:12px;fill-rule:evenodd;stroke-width:0.625;stroke-linejoin:round"
       id="path4747" />
  </g>
  <path
     style="fill:none;fill-rule:evenodd;stroke:#000000;stroke-width:1.10146344px;stroke-linecap:butt;stroke-linejoin:miter;stroke-opacity:1"
     d="M 250.34203,22.470681 L 256.40814,22.470681"
     id="path4653" />
  <text
     x="53.90786"
     y="37.567486"
     style="font-size:14px;font-style:normal;font-weight:normal;text-align:center;text-anchor:middle;fill:#000000;fill-opacity:1;stroke:none;stroke-width:1px;stroke-linecap:butt;stroke-linejoin:miter;stroke-opacity:1;font-family:Arial"
     id="text4730"
     xml:space="preserve">e</text>
  <path
     style="fill:none;fill-rule:evenodd;stroke:#000000;stroke-width:1px;stroke-linecap:butt;stroke-linejoin:miter;stroke-opacity:1"
     d="M 58.437573,29.654753 L 62.276863,29.654753"
     id="path2778"
     sodipodi:nodetypes="cc" />
  <g
     id="g4113"
     transform="matrix(-0.847233,-0.5312214,0.5312214,-0.847233,139.48993,276.34266)"
     inkscape:transform-center-y="-5.6947134"
     inkscape:transform-center-x="-6.9034624">
    <path
       d="M 200.86305,149.98641 L 189.2063,142.28807 L 203.07341,140.60063 C 200.38209,142.89117 199.50111,146.6847 200.86305,149.98641 z "
       style="font-size:12px;fill-rule:evenodd;stroke-width:0.625;stroke-linejoin:round"
       id="path4115" />
  </g>
  <g
     id="g4139"
     transform="matrix(-0.847233,-0.5312214,0.5312214,-0.847233,381.00187,252.62912)"
     inkscape:transform-center-y="-5.6947134"
     inkscape:transform-center-x="-6.9034624">
    <path
       d="M 209.72711,110.36918 L 217.42545,98.712428 L 219.11289,112.57954 C 216.82235,109.88822 213.02882,109.00724 209.72711,110.36918 z "
       style="font-size:12px;fill-rule:evenodd;stroke-width:0.625;stroke-linejoin:round"
       id="path4141" />
  </g>
  <g
     id="g4143"
     transform="matrix(-0.847233,-0.5312214,0.5312214,-0.847233,345.92112,358.10353)"
     inkscape:transform-center-y="-5.6947134"
     inkscape:transform-center-x="-6.9034624">
    <path
       d="M 200.86305,149.98641 L 189.2063,142.28807 L 203.07341,140.60063 C 200.38209,142.89117 199.50111,146.6847 200.86305,149.98641 z "
       style="font-size:12px;fill-rule:evenodd;stroke-width:0.625;stroke-linejoin:round"
       id="path4145" />
  </g>
  <g
     id="g4749"
     transform="matrix(0,1,-1,0,307.82863,163.20574)">
    <path
       style="fill:#000000;fill-opacity:1;fill-rule:evenodd;stroke:none;stroke-width:0.91594553px;stroke-linecap:butt;stroke-linejoin:miter;stroke-opacity:1"
       d="M 19.53125,37.78125 L 19.53125,285 L 20.46875,285 L 20.46875,37.78125 L 19.53125,37.78125 z "
       id="path4514" />
    <path
       d="M 15.93585,47.580205 L 19.983866,36.571945 L 24.031881,47.580205 C 21.641935,45.821546 18.372073,45.831679 15.93585,47.580205 z "
       style="font-size:12px;fill-rule:evenodd;stroke-width:0.625;stroke-linejoin:round"
       id="path4755" />
  </g>
  <text
     xml:space="preserve"
     style="font-size:16px;font-family:Arial"
     x="277"
     y="188"
     id="text4518">t</text>
</svg>
