<?xml version="1.0" encoding="UTF-8" standalone="no"?>
<svg
   xmlns:dc="http://purl.org/dc/elements/1.1/"
   xmlns:cc="http://creativecommons.org/ns#"
   xmlns:rdf="http://www.w3.org/1999/02/22-rdf-syntax-ns#"
   xmlns:svg="http://www.w3.org/2000/svg"
   xmlns="http://www.w3.org/2000/svg"
   xmlns:sodipodi="http://sodipodi.sourceforge.net/DTD/sodipodi-0.dtd"
   xmlns:inkscape="http://www.inkscape.org/namespaces/inkscape"
   width="140mm"
   height="140mm"
   viewBox="0 0 500 500">
<path style="fill:#808000;fill-opacity:1;stroke:#ffffff;stroke-width:10;stroke-miterlimit:2;stroke-opacity:1" d="M 250 250 L 10.0 250.0 A 240 240 0 0 1 21.7464360892 175.83592135 L 250 250" />
<path style="fill:#808000;fill-opacity:1;stroke:#ffffff;stroke-width:10;stroke-miterlimit:2;stroke-opacity:1" d="M 250 250 L 21.7464360892 175.83592135 A 240 240 0 0 1 55.83592135 108.93153945 L 250 250" />
<path style="fill:#808000;fill-opacity:1;stroke:#ffffff;stroke-width:10;stroke-miterlimit:2;stroke-opacity:1" d="M 250 250 L 55.83592135 108.93153945 A 240 240 0 0 1 108.93153945 55.83592135 L 250 250" />
<path style="fill:#808000;fill-opacity:1;stroke:#ffffff;stroke-width:10;stroke-miterlimit:2;stroke-opacity:1" d="M 250 250 L 108.93153945 55.83592135 A 240 240 0 0 1 175.83592135 21.7464360892 L 250 250" />
<path style="fill:#808000;fill-opacity:1;stroke:#ffffff;stroke-width:10;stroke-miterlimit:2;stroke-opacity:1" d="M 250 250 L 175.83592135 21.7464360892 A 240 240 0 0 1 250.0 10.0 L 250 250" />
<circle cx="250" cy="250" r="150.0" style="fill:#ffffff" />
</svg>

