<?xml version="1.0" encoding="UTF-8" standalone="no"?>
<!DOCTYPE svg PUBLIC "-//W3C//DTD SVG 1.1//EN"
 "http://www.w3.org/Graphics/SVG/1.1/DTD/svg11.dtd">
<!-- Generated by graphviz version 2.36.0 (20140111.2315)
 -->
<!-- Title: G Pages: 1 -->
<svg width="576pt" height="104pt"
 viewBox="0.00 0.00 576.00 104.00" xmlns="http://www.w3.org/2000/svg" xmlns:xlink="http://www.w3.org/1999/xlink">
<g id="graph0" class="graph" transform="scale(1 1) rotate(0) translate(4 100)">
<title>G</title>
<polygon fill="white" stroke="none" points="-4,4 -4,-100 572,-100 572,4 -4,4"/>
<g id="clust1" class="cluster"><title>cluster0</title>
<polygon fill="lightgray" stroke="lightgray" points="8,-8 8,-88 88,-88 88,-8 8,-8"/>
<text text-anchor="middle" x="48" y="-69.6" font-family="Times,serif" font-size="18.00">Client</text>
</g>
<g id="clust2" class="cluster"><title>cluster1</title>
<polygon fill="lightgray" stroke="lightgray" points="108,-8 108,-88 560,-88 560,-8 108,-8"/>
<text text-anchor="middle" x="334" y="-69.6" font-family="Times,serif" font-size="18.00">Server</text>
</g>
<!-- answer′ -->
<g id="node1" class="node"><title>answer′</title>
<polygon fill="none" stroke="black" points="79.5,-52 16.5,-52 16.5,-16 79.5,-16 79.5,-52"/>
<text text-anchor="middle" x="48" y="-30.3" font-family="Helvetica,sans-Serif" font-size="14.00">answer′</text>
</g>
<!-- answer -->
<g id="node2" class="node"><title>answer</title>
<polygon fill="none" stroke="black" points="176,-52 116,-52 116,-16 176,-16 176,-52"/>
<text text-anchor="middle" x="146" y="-30.3" font-family="Helvetica,sans-Serif" font-size="14.00">answer</text>
</g>
<!-- answer′&#45;&gt;answer -->
<g id="edge5" class="edge"><title>answer′&#45;&gt;answer</title>
<path fill="none" stroke="black" d="M89.7542,-34C98.5637,-34 107.707,-34 115.959,-34"/>
<polygon fill="black" stroke="black" points="89.639,-30.5001 79.6389,-34 89.6389,-37.5001 89.639,-30.5001"/>
</g>
<!-- ∩ -->
<g id="node3" class="node"><title>∩</title>
<polygon fill="none" stroke="black" points="239,-52 212,-34 239,-16 266,-34 239,-52"/>
<text text-anchor="middle" x="239" y="-30.3" font-family="Helvetica,sans-Serif" font-size="14.00">∩</text>
</g>
<!-- answer&#45;&gt;∩ -->
<g id="edge1" class="edge"><title>answer&#45;&gt;∩</title>
<path fill="none" stroke="black" d="M186.285,-34C194.872,-34 203.761,-34 211.696,-34"/>
<polygon fill="black" stroke="black" points="186.043,-30.5001 176.043,-34 186.043,-37.5001 186.043,-30.5001"/>
</g>
<!-- plantlists -->
<g id="node4" class="node"><title>plantlists</title>
<polygon fill="none" stroke="black" points="371.5,-52 302.5,-52 302.5,-16 371.5,-16 371.5,-52"/>
<text text-anchor="middle" x="337" y="-30.3" font-family="Helvetica,sans-Serif" font-size="14.00">plantlists</text>
</g>
<!-- ∩&#45;&gt;plantlists -->
<g id="edge2" class="edge"><title>∩&#45;&gt;plantlists</title>
<path fill="none" stroke="black" d="M276.277,-34C284.789,-34 293.824,-34 302.221,-34"/>
<polygon fill="black" stroke="black" points="276.232,-30.5001 266.232,-34 276.232,-37.5001 276.232,-30.5001"/>
</g>
<!-- = -->
<g id="node5" class="node"><title>=</title>
<polygon fill="none" stroke="black" points="435,-52 408,-34 435,-16 462,-34 435,-52"/>
<text text-anchor="middle" x="435" y="-30.3" font-family="Helvetica,sans-Serif" font-size="14.00">=</text>
</g>
<!-- plantlists&#45;&gt;= -->
<g id="edge3" class="edge"><title>plantlists&#45;&gt;=</title>
<path fill="none" stroke="black" d="M381.848,-34C390.736,-34 399.815,-34 407.855,-34"/>
<polygon fill="black" stroke="black" points="381.576,-30.5001 371.576,-34 381.576,-37.5001 381.576,-30.5001"/>
</g>
<!-- DB -->
<g id="node6" class="node"><title>DB</title>
<polygon fill="none" stroke="black" points="552,-52 502,-52 498,-48 498,-16 548,-16 552,-20 552,-52"/>
<polyline fill="none" stroke="black" points="548,-48 498,-48 "/>
<polyline fill="none" stroke="black" points="548,-48 548,-16 "/>
<polyline fill="none" stroke="black" points="548,-48 552,-52 "/>
<text text-anchor="middle" x="525" y="-30.3" font-family="Helvetica,sans-Serif" font-size="14.00">DB</text>
</g>
<!-- =&#45;&gt;DB -->
<g id="edge4" class="edge"><title>=&#45;&gt;DB</title>
<path fill="none" stroke="black" d="M472.52,-34C481.044,-34 489.954,-34 497.919,-34"/>
<polygon fill="black" stroke="black" points="472.403,-30.5001 462.403,-34 472.403,-37.5001 472.403,-30.5001"/>
</g>
</g>
</svg>
