<?xml version="1.0" encoding="UTF-8" standalone="no"?>
<!DOCTYPE svg PUBLIC "-//W3C//DTD SVG 1.1//EN"
 "http://www.w3.org/Graphics/SVG/1.1/DTD/svg11.dtd">
<!-- Generated by graphviz version 2.36.0 (20140111.2315)
 -->
<!-- Title: G Pages: 1 -->
<svg width="584pt" height="104pt"
 viewBox="0.00 0.00 584.00 104.00" xmlns="http://www.w3.org/2000/svg" xmlns:xlink="http://www.w3.org/1999/xlink">
<g id="graph0" class="graph" transform="scale(1 1) rotate(0) translate(4 100)">
<title>G</title>
<polygon fill="white" stroke="none" points="-4,4 -4,-100 580,-100 580,4 -4,4"/>
<g id="clust1" class="cluster"><title>cluster0</title>
<polygon fill="lightgray" stroke="lightgray" points="8,-8 8,-88 282,-88 282,-8 8,-8"/>
<text text-anchor="middle" x="145" y="-69.6" font-family="Times,serif" font-size="18.00">Client</text>
</g>
<g id="clust2" class="cluster"><title>cluster1</title>
<polygon fill="lightgray" stroke="lightgray" points="302,-8 302,-88 568,-88 568,-8 302,-8"/>
<text text-anchor="middle" x="435" y="-69.6" font-family="Times,serif" font-size="18.00">Server</text>
</g>
<!-- answer -->
<g id="node1" class="node"><title>answer</title>
<polygon fill="none" stroke="black" points="76,-52 16,-52 16,-16 76,-16 76,-52"/>
<text text-anchor="middle" x="46" y="-30.3" font-family="Helvetica,sans-Serif" font-size="14.00">answer</text>
</g>
<!-- ∩ -->
<g id="node2" class="node"><title>∩</title>
<polygon fill="none" stroke="black" points="139,-52 112,-34 139,-16 166,-34 139,-52"/>
<text text-anchor="middle" x="139" y="-30.3" font-family="Helvetica,sans-Serif" font-size="14.00">∩</text>
</g>
<!-- answer&#45;&gt;∩ -->
<g id="edge1" class="edge"><title>answer&#45;&gt;∩</title>
<path fill="none" stroke="black" d="M86.2847,-34C94.8724,-34 103.761,-34 111.696,-34"/>
<polygon fill="black" stroke="black" points="86.0432,-30.5001 76.0432,-34 86.0431,-37.5001 86.0432,-30.5001"/>
</g>
<!-- plantlists′ -->
<g id="node3" class="node"><title>plantlists′</title>
<polygon fill="none" stroke="black" points="274,-52 202,-52 202,-16 274,-16 274,-52"/>
<text text-anchor="middle" x="238" y="-30.3" font-family="Helvetica,sans-Serif" font-size="14.00">plantlists′</text>
</g>
<!-- ∩&#45;&gt;plantlists′ -->
<g id="edge2" class="edge"><title>∩&#45;&gt;plantlists′</title>
<path fill="none" stroke="black" d="M176.478,-34C184.831,-34 193.693,-34 201.983,-34"/>
<polygon fill="black" stroke="black" points="176.25,-30.5001 166.25,-34 176.25,-37.5001 176.25,-30.5001"/>
</g>
<!-- plantlists -->
<g id="node4" class="node"><title>plantlists</title>
<polygon fill="none" stroke="black" points="379.5,-52 310.5,-52 310.5,-16 379.5,-16 379.5,-52"/>
<text text-anchor="middle" x="345" y="-30.3" font-family="Helvetica,sans-Serif" font-size="14.00">plantlists</text>
</g>
<!-- plantlists′&#45;&gt;plantlists -->
<g id="edge5" class="edge"><title>plantlists′&#45;&gt;plantlists</title>
<path fill="none" stroke="black" d="M284.352,-34C293.11,-34 302.138,-34 310.437,-34"/>
<polygon fill="black" stroke="black" points="284.256,-30.5001 274.256,-34 284.256,-37.5001 284.256,-30.5001"/>
</g>
<!-- = -->
<g id="node5" class="node"><title>=</title>
<polygon fill="none" stroke="black" points="443,-52 416,-34 443,-16 470,-34 443,-52"/>
<text text-anchor="middle" x="443" y="-30.3" font-family="Helvetica,sans-Serif" font-size="14.00">=</text>
</g>
<!-- plantlists&#45;&gt;= -->
<g id="edge3" class="edge"><title>plantlists&#45;&gt;=</title>
<path fill="none" stroke="black" d="M389.848,-34C398.736,-34 407.815,-34 415.855,-34"/>
<polygon fill="black" stroke="black" points="389.576,-30.5001 379.576,-34 389.576,-37.5001 389.576,-30.5001"/>
</g>
<!-- DB -->
<g id="node6" class="node"><title>DB</title>
<polygon fill="none" stroke="black" points="560,-52 510,-52 506,-48 506,-16 556,-16 560,-20 560,-52"/>
<polyline fill="none" stroke="black" points="556,-48 506,-48 "/>
<polyline fill="none" stroke="black" points="556,-48 556,-16 "/>
<polyline fill="none" stroke="black" points="556,-48 560,-52 "/>
<text text-anchor="middle" x="533" y="-30.3" font-family="Helvetica,sans-Serif" font-size="14.00">DB</text>
</g>
<!-- =&#45;&gt;DB -->
<g id="edge4" class="edge"><title>=&#45;&gt;DB</title>
<path fill="none" stroke="black" d="M480.52,-34C489.044,-34 497.954,-34 505.919,-34"/>
<polygon fill="black" stroke="black" points="480.403,-30.5001 470.403,-34 480.403,-37.5001 480.403,-30.5001"/>
</g>
</g>
</svg>
