<?xml version="1.0" encoding="UTF-8" standalone="no"?>
<!DOCTYPE svg PUBLIC "-//W3C//DTD SVG 1.1//EN"
 "http://www.w3.org/Graphics/SVG/1.1/DTD/svg11.dtd">
<!-- Generated by graphviz version 2.36.0 (20140111.2315)
 -->
<!-- Title: %3 Pages: 1 -->
<svg width="332pt" height="152pt"
 viewBox="0.00 0.00 332.00 152.00" xmlns="http://www.w3.org/2000/svg" xmlns:xlink="http://www.w3.org/1999/xlink">
<g id="graph0" class="graph" transform="scale(1 1) rotate(0) translate(4 148)">
<title>%3</title>
<polygon fill="white" stroke="none" points="-4,4 -4,-148 328,-148 328,4 -4,4"/>
<!-- ø -->
<g id="node1" class="node"><title>ø</title>
<text text-anchor="middle" x="27" y="-65.8" font-family="Times,serif" font-size="24.00">ø</text>
</g>
<!-- a -->
<g id="node2" class="node"><title>a</title>
<text text-anchor="middle" x="117" y="-119.8" font-family="Times,serif" font-size="24.00">a</text>
</g>
<!-- ø&#45;&gt;a -->
<g id="edge1" class="edge"><title>ø&#45;&gt;a</title>
<path fill="none" stroke="black" d="M54.4029,-88.2018C62.8323,-93.3743 72.2933,-99.18 81.2235,-104.66"/>
<polygon fill="black" stroke="black" points="79.5652,-107.749 89.919,-109.996 83.2263,-101.782 79.5652,-107.749"/>
</g>
<!-- b -->
<g id="node3" class="node"><title>b</title>
<text text-anchor="middle" x="117" y="-65.8" font-family="Times,serif" font-size="24.00">b</text>
</g>
<!-- ø&#45;&gt;b -->
<g id="edge2" class="edge"><title>ø&#45;&gt;b</title>
<path fill="none" stroke="black" d="M54.4029,-72C62.3932,-72 71.3106,-72 79.8241,-72"/>
<polygon fill="black" stroke="black" points="79.919,-75.5001 89.919,-72 79.919,-68.5001 79.919,-75.5001"/>
</g>
<!-- c -->
<g id="node4" class="node"><title>c</title>
<text text-anchor="middle" x="117" y="-11.8" font-family="Times,serif" font-size="24.00">c</text>
</g>
<!-- ø&#45;&gt;c -->
<g id="edge3" class="edge"><title>ø&#45;&gt;c</title>
<path fill="none" stroke="black" d="M54.4029,-55.7982C62.8323,-50.6257 72.2933,-44.82 81.2235,-39.3401"/>
<polygon fill="black" stroke="black" points="83.2263,-42.2176 89.919,-34.0043 79.5652,-36.2513 83.2263,-42.2176"/>
</g>
<!-- ab -->
<g id="node5" class="node"><title>ab</title>
<text text-anchor="middle" x="207" y="-119.8" font-family="Times,serif" font-size="24.00">ab</text>
</g>
<!-- a&#45;&gt;ab -->
<g id="edge4" class="edge"><title>a&#45;&gt;ab</title>
<path fill="none" stroke="black" d="M144.403,-126C152.393,-126 161.311,-126 169.824,-126"/>
<polygon fill="black" stroke="black" points="169.919,-129.5 179.919,-126 169.919,-122.5 169.919,-129.5"/>
</g>
<!-- ac -->
<g id="node6" class="node"><title>ac</title>
<text text-anchor="middle" x="207" y="-65.8" font-family="Times,serif" font-size="24.00">ac</text>
</g>
<!-- a&#45;&gt;ac -->
<g id="edge5" class="edge"><title>a&#45;&gt;ac</title>
<path fill="none" stroke="black" d="M144.403,-109.798C152.832,-104.626 162.293,-98.82 171.224,-93.3401"/>
<polygon fill="black" stroke="black" points="173.226,-96.2176 179.919,-88.0043 169.565,-90.2513 173.226,-96.2176"/>
</g>
<!-- b&#45;&gt;ab -->
<g id="edge6" class="edge"><title>b&#45;&gt;ab</title>
<path fill="none" stroke="black" d="M144.403,-88.2018C152.832,-93.3743 162.293,-99.18 171.224,-104.66"/>
<polygon fill="black" stroke="black" points="169.565,-107.749 179.919,-109.996 173.226,-101.782 169.565,-107.749"/>
</g>
<!-- bc -->
<g id="node7" class="node"><title>bc</title>
<text text-anchor="middle" x="207" y="-11.8" font-family="Times,serif" font-size="24.00">bc</text>
</g>
<!-- b&#45;&gt;bc -->
<g id="edge7" class="edge"><title>b&#45;&gt;bc</title>
<path fill="none" stroke="black" d="M144.403,-55.7982C152.832,-50.6257 162.293,-44.82 171.224,-39.3401"/>
<polygon fill="black" stroke="black" points="173.226,-42.2176 179.919,-34.0043 169.565,-36.2513 173.226,-42.2176"/>
</g>
<!-- c&#45;&gt;ac -->
<g id="edge8" class="edge"><title>c&#45;&gt;ac</title>
<path fill="none" stroke="black" d="M144.403,-34.2018C152.832,-39.3743 162.293,-45.18 171.224,-50.6599"/>
<polygon fill="black" stroke="black" points="169.565,-53.7487 179.919,-55.9957 173.226,-47.7824 169.565,-53.7487"/>
</g>
<!-- c&#45;&gt;bc -->
<g id="edge9" class="edge"><title>c&#45;&gt;bc</title>
<path fill="none" stroke="black" d="M144.403,-18C152.393,-18 161.311,-18 169.824,-18"/>
<polygon fill="black" stroke="black" points="169.919,-21.5001 179.919,-18 169.919,-14.5001 169.919,-21.5001"/>
</g>
<!-- abc -->
<g id="node8" class="node"><title>abc</title>
<text text-anchor="middle" x="297" y="-65.8" font-family="Times,serif" font-size="24.00">abc</text>
</g>
<!-- ab&#45;&gt;abc -->
<g id="edge10" class="edge"><title>ab&#45;&gt;abc</title>
<path fill="none" stroke="black" d="M234.403,-109.798C242.832,-104.626 252.293,-98.82 261.224,-93.3401"/>
<polygon fill="black" stroke="black" points="263.226,-96.2176 269.919,-88.0043 259.565,-90.2513 263.226,-96.2176"/>
</g>
<!-- ac&#45;&gt;abc -->
<g id="edge12" class="edge"><title>ac&#45;&gt;abc</title>
<path fill="none" stroke="black" d="M234.403,-72C242.393,-72 251.311,-72 259.824,-72"/>
<polygon fill="black" stroke="black" points="259.919,-75.5001 269.919,-72 259.919,-68.5001 259.919,-75.5001"/>
</g>
<!-- bc&#45;&gt;abc -->
<g id="edge11" class="edge"><title>bc&#45;&gt;abc</title>
<path fill="none" stroke="black" d="M234.403,-34.2018C242.832,-39.3743 252.293,-45.18 261.224,-50.6599"/>
<polygon fill="black" stroke="black" points="259.565,-53.7487 269.919,-55.9957 263.226,-47.7824 259.565,-53.7487"/>
</g>
</g>
</svg>
