<?xml version="1.0" encoding="UTF-8" standalone="no"?>
<!DOCTYPE svg PUBLIC "-//W3C//DTD SVG 1.1//EN"
 "http://www.w3.org/Graphics/SVG/1.1/DTD/svg11.dtd">
<!-- Generated by graphviz version 2.43.0 (0)
 -->
<!-- Title: G Pages: 1 -->
<svg width="82.64101615137754pt" height="128.0pt"
 viewBox="-24.0 -104.0 82.64101615137754 128.0"
 xmlns="http://www.w3.org/2000/svg"
 xmlns:xlink="http://www.w3.org/1999/xlink">

<g transform="translate(0,0) rotate(0)">
<path fill="black" d="
M0,0 L-2.5,0 -2.5,-17 -7.5,-17 0,-35 7.5,-17 2.5,-17 2.5,0 Z
"/>
</g>
<g transform="translate(0,-40) rotate(60)">
<path fill="black" d="
M0,0 L-2.5,0 -2.5,-17 -7.5,-17 0,-35 7.5,-17 2.5,-17 2.5,0 Z
"/>
</g>
<g transform="translate(34.64101615137754,-60.0) rotate(-60)">
<path fill="black" d="
M0,0 L-2.5,0 -2.5,-17 -7.5,-17 0,-35 7.5,-17 2.5,-17 2.5,0 Z
"/>
</g>
<circle cx="0" cy="0" r="12" fill="green" />
<circle cx="0" cy="-40" r="12" fill="green" />
<circle cx="34.64101615137754" cy="-60.0" r="12" fill="red" />
<circle cx="0.0" cy="-80.0" r="12" fill="green" />
</svg>
