<?xml version="1.0" encoding="UTF-8" standalone="no"?>
<!DOCTYPE svg PUBLIC "-//W3C//DTD SVG 1.1//EN"
 "http://www.w3.org/Graphics/SVG/1.1/DTD/svg11.dtd">
<!-- Generated by graphviz version 2.43.0 (0)
 -->
<!-- Title: G Pages: 1 -->
<svg width="186.56406460551017pt" height="128pt"
 viewBox="-93.28203230275508 -104 186.56406460551017 128"
 xmlns="http://www.w3.org/2000/svg"
 xmlns:xlink="http://www.w3.org/1999/xlink">

<g transform="translate(0,0) rotate(-60)">
<path fill="black" d="
M0,0 L-2.5,0 -2.5,-17 -7.5,-17 0,-35 7.5,-17 2.5,-17 2.5,0 Z
"/>
</g>
<g transform="translate(0,0) rotate(0)">
<path fill="black" d="
M0,0 L-2.5,0 -2.5,-17 -7.5,-17 0,-35 7.5,-17 2.5,-17 2.5,0 Z
"/>
</g>
<g transform="translate(0,0) rotate(60)">
<path fill="black" d="
M0,0 L-2.5,0 -2.5,-17 -7.5,-17 0,-35 7.5,-17 2.5,-17 2.5,0 Z
"/>
</g>
<circle cx="0" cy="0" r="12" fill="green" />
<circle cx="-34.64101615137754" cy="-20.0" r="12" fill="red" />
<circle cx="0" cy="-40" r="12" fill="green" />
<circle cx="34.64101615137754" cy="-20.0" r="12" fill="green" />
</svg>
