<?xml version="1.0" encoding="UTF-8" standalone="no"?>
<!DOCTYPE svg PUBLIC "-//W3C//DTD SVG 1.1//EN"
 "http://www.w3.org/Graphics/SVG/1.1/DTD/svg11.dtd">
<!-- Generated by graphviz version 2.43.0 (0)
 -->
<!-- Title: G Pages: 1 -->
<svg width="186.56406460551017pt" height="168.0pt"
 viewBox="-24 -144.0 186.56406460551017 168.0"
 xmlns="http://www.w3.org/2000/svg"
 xmlns:xlink="http://www.w3.org/1999/xlink">

<g transform="translate(0,0) rotate(60)">
<path fill="black" d="
M0,0 L-2.5,0 -2.5,-17 -7.5,-17 0,-35 7.5,-17 2.5,-17 2.5,0 Z
"/>
</g>
<g transform="translate(34.64101615137754,-20.0) rotate(60)">
<path fill="black" d="
M0,0 L-2.5,0 -2.5,-17 -7.5,-17 0,-35 7.5,-17 2.5,-17 2.5,0 Z
"/>
</g>
<g transform="translate(69.28203230275508,-40.0) rotate(60)">
<path fill="black" d="
M0,0 L-2.5,0 -2.5,-17 -7.5,-17 0,-35 7.5,-17 2.5,-17 2.5,0 Z
"/>
</g>
<g transform="translate(103.92304845413263,-60.0) rotate(60)">
<path fill="black" d="
M0,0 L-2.5,0 -2.5,-17 -7.5,-17 0,-35 7.5,-17 2.5,-17 2.5,0 Z
"/>
</g>
<line stroke-width="1.5" stroke-dasharray="2,1.5" x1="17.32050807568877" y1="-104.0" x2="17.32050807568877" y2="24" stroke="black" />
<circle cx="0" cy="0" r="12" fill="green" />
<circle cx="34.64101615137754" cy="-20.0" r="12" fill="#ccc" />
<circle cx="69.28203230275508" cy="-40.0" r="12" fill="#ccc" />
<circle cx="103.92304845413263" cy="-60.0" r="12" fill="#ccc" />
<circle cx="138.56406460551017" cy="-80.0" r="12" fill="red" />
</svg>
